<svg id="Layer_2" data-name="Layer 2" xmlns="http://www.w3.org/2000/svg" xmlns:xlink="http://www.w3.org/1999/xlink" viewBox="0 0 2293.72 1290.22"><defs><linearGradient id="linear-gradient" x1="1070.05" y1="560.51" x2="1322.48" y2="387.79" gradientUnits="userSpaceOnUse"><stop offset="0" stop-color="#7a4423"/><stop offset="0.99" stop-color="#3b1e0c"/></linearGradient><radialGradient id="radial-gradient" cx="1364.2" cy="403.38" r="263.74" gradientUnits="userSpaceOnUse"><stop offset="0.14" stop-color="#ac5f2d"/><stop offset="0.16" stop-color="#9e5629"/><stop offset="0.22" stop-color="#7a421e"/><stop offset="0.28" stop-color="#5f3116"/><stop offset="0.33" stop-color="#4b2510"/><stop offset="0.39" stop-color="#3f1e0c"/><stop offset="0.45" stop-color="#3b1c0b"/></radialGradient><linearGradient id="linear-gradient-2" x1="908.63" y1="826.9" x2="1045.68" y2="221.14" gradientUnits="userSpaceOnUse"><stop offset="0" stop-color="#ac5f2d"/><stop offset="0.11" stop-color="#a95d2c"/><stop offset="0.2" stop-color="#9f582b"/><stop offset="0.28" stop-color="#8e4f28"/><stop offset="0.36" stop-color="#764224"/><stop offset="0.42" stop-color="#603620"/><stop offset="0.46" stop-color="#512918"/><stop offset="0.54" stop-color="#3d170d"/><stop offset="0.63" stop-color="#2f0a06"/><stop offset="0.74" stop-color="#270201"/><stop offset="0.92" stop-color="#240000"/></linearGradient><radialGradient id="radial-gradient-2" cx="709.1" cy="701.01" r="238.97" gradientUnits="userSpaceOnUse"><stop offset="0" stop-color="#b0622e"/><stop offset="0.14" stop-color="#ab5f2d"/><stop offset="0.31" stop-color="#9d562b"/><stop offset="0.49" stop-color="#854827"/><stop offset="0.6" stop-color="#743d24"/><stop offset="0.74" stop-color="#5b2c16"/><stop offset="0.94" stop-color="#321100"/></radialGradient><linearGradient id="linear-gradient-3" x1="979.15" y1="814.56" x2="1084.1" y2="640.24" gradientUnits="userSpaceOnUse"><stop offset="0" stop-color="#ac5f2d"/><stop offset="0.17" stop-color="#8d4c22"/><stop offset="0.41" stop-color="#663414"/><stop offset="0.64" stop-color="#49220a"/><stop offset="0.84" stop-color="#381804"/><stop offset="0.99" stop-color="#321402"/></linearGradient><linearGradient id="linear-gradient-4" x1="1217.88" y1="835.9" x2="1276.93" y2="809.29" gradientUnits="userSpaceOnUse"><stop offset="0.04" stop-color="#8b5033"/><stop offset="0.2" stop-color="#734129"/><stop offset="0.32" stop-color="#5d321d"/><stop offset="0.47" stop-color="#4a2613"/><stop offset="0.62" stop-color="#3f1e0d"/><stop offset="0.79" stop-color="#3b1c0b"/></linearGradient><linearGradient id="linear-gradient-5" x1="1293.85" y1="811.92" x2="1328.77" y2="590.41" gradientUnits="userSpaceOnUse"><stop offset="0.04" stop-color="#8b5033"/><stop offset="0.16" stop-color="#7a452b"/><stop offset="0.42" stop-color="#582f19"/><stop offset="0.64" stop-color="#43210f"/><stop offset="0.79" stop-color="#3b1c0b"/></linearGradient><linearGradient id="linear-gradient-6" x1="1265.72" y1="796.16" x2="1278.64" y2="766.96" gradientUnits="userSpaceOnUse"><stop offset="0.09" stop-color="#3b1c0b"/><stop offset="0.23" stop-color="#300f06"/><stop offset="0.42" stop-color="#270401"/><stop offset="0.63" stop-color="#240000"/></linearGradient><linearGradient id="linear-gradient-7" x1="1200.43" y1="698.38" x2="1259.5" y2="698.38" gradientUnits="userSpaceOnUse"><stop offset="0.04" stop-color="#ac5f2d"/><stop offset="0.38" stop-color="#5e341f"/><stop offset="0.38" stop-color="#5e341f"/><stop offset="0.51" stop-color="#4a2714"/><stop offset="0.65" stop-color="#3f1f0d"/><stop offset="0.79" stop-color="#3b1c0b"/></linearGradient><radialGradient id="radial-gradient-3" cx="973.01" cy="742.19" r="146.31" gradientUnits="userSpaceOnUse"><stop offset="0" stop-color="#3b1c0b" stop-opacity="0"/><stop offset="0.31" stop-color="#381909" stop-opacity="0.12"/><stop offset="0.65" stop-color="#300f05" stop-opacity="0.45"/><stop offset="0.9" stop-color="#280500" stop-opacity="0.8"/></radialGradient><radialGradient id="radial-gradient-4" cx="1283.05" cy="896.95" r="329.51" xlink:href="#radial-gradient-3"/><radialGradient id="radial-gradient-5" cx="1294.19" cy="324.57" r="78.4" gradientUnits="userSpaceOnUse"><stop offset="0.29" stop-color="#3b1c0b" stop-opacity="0.1"/><stop offset="0.46" stop-color="#321306" stop-opacity="0.52"/><stop offset="0.66" stop-color="#2b0c01" stop-opacity="0.88"/><stop offset="0.85" stop-color="#280900"/></radialGradient><radialGradient id="radial-gradient-6" cx="1433.18" cy="323.64" r="65.28" xlink:href="#radial-gradient-5"/><linearGradient id="linear-gradient-8" x1="1295.54" y1="292.61" x2="1315.2" y2="329.23" xlink:href="#radial-gradient-5"/><linearGradient id="linear-gradient-9" x1="1442.62" y1="298.57" x2="1411.5" y2="335.59" gradientUnits="userSpaceOnUse"><stop offset="0.41" stop-color="#3b1c0b" stop-opacity="0.1"/><stop offset="0.53" stop-color="#321306" stop-opacity="0.52"/><stop offset="0.69" stop-color="#2b0c01" stop-opacity="0.88"/><stop offset="0.84" stop-color="#280900"/></linearGradient><linearGradient id="linear-gradient-10" x1="1225.35" y1="832.35" x2="1231.54" y2="832.35" gradientTransform="translate(224.21 -260.08) rotate(13.29)" xlink:href="#linear-gradient-6"/><linearGradient id="linear-gradient-11" x1="1254.37" y1="829.31" x2="1260.56" y2="829.31" gradientTransform="translate(224.29 -266.83) rotate(13.29)" xlink:href="#linear-gradient-6"/><linearGradient id="linear-gradient-12" x1="1212.08" y1="832.35" x2="1220.61" y2="832.35" gradientTransform="translate(1329.01 -637.21) rotate(60)" xlink:href="#linear-gradient-6"/><linearGradient id="linear-gradient-13" x1="1237.33" y1="830.4" x2="1243.52" y2="830.4" gradientTransform="translate(224.08 -262.88) rotate(13.29)" xlink:href="#linear-gradient-6"/><radialGradient id="radial-gradient-7" cx="1349.98" cy="157.45" r="503.66" gradientUnits="userSpaceOnUse"><stop offset="0.43" stop-color="#b0613c" stop-opacity="0.1"/><stop offset="0.51" stop-color="#6a331d" stop-opacity="0.57"/><stop offset="0.64" stop-color="#371307" stop-opacity="0.9"/><stop offset="0.85" stop-color="#280900"/></radialGradient><radialGradient id="radial-gradient-8" cx="640.64" cy="967.1" r="1697.32" gradientUnits="userSpaceOnUse"><stop offset="0" stop-color="#fffeec"/><stop offset="0.02" stop-color="#ece9d7"/><stop offset="0.09" stop-color="#b7ab9a"/><stop offset="0.16" stop-color="#8b7867"/><stop offset="0.22" stop-color="#68503f"/><stop offset="0.28" stop-color="#4f3422"/><stop offset="0.33" stop-color="#402211"/><stop offset="0.37" stop-color="#3b1c0b"/><stop offset="0.87" stop-color="#3b1c0b"/></radialGradient></defs><rect width="2293.72" height="1290.22" style="fill:#010101"/><path d="M1192.94,631.75c-55.09,17-79.87,10-98.7-.8-24.93-14.28-34.91-15.7-39.75-37.3a85.11,85.11,0,0,1-12.68-23.2c-2.73-7.4,6-66.6-42.14-88.71-42.81-19.67-84.37,14.36-81.9,2.05s67.44-93.59,184.33-89.9c36.39,1.15,79-21.52,88.83-30.92,6.5-6.24,28-28.94,55-32.86,31.75-4.62,39.4-18.44,36.21-9.95-22.19,59.22-33,68.38-9.55,77.17s32,33.68,39.85,25.79c3.19-3.22,1.51-11.86,3.75-16.94.66-1.5,3.37,2.52,10.64,17.92,17,36.06,30.12,49.46,44.21,47.51,7.82-1.09,22.54-16.62,25.15-29,4.22-20,16.18-39.73,31.26-30.11,6.89,4.39,9.08,9.79,16.2,14.23,3.92,2.46-15.22,19.14-71.66,87.86C1356.12,534,1367.52,541,1337.68,574c-23.07,25.52-35.6-4.27-58,13.19-50.46,39.32-3.34-15.16-27.54-18.75-34.9-5.19-49.94,8.33-46,36C1209.09,625.06,1192.94,631.75,1192.94,631.75Z" style="fill:url(#linear-gradient)"/><path d="M1282.79,318.33c4.4-16.6-4.29-51.71,14.27-54.5s22.74,24.33,68.5,23.61c34.36-.55,56.49-17.56,72.88-18.8,10.49-.79,7.34,22,5.48,47-.62,8.45,2,22.55,3.81,30.8.81,3.7,1.45,6.22,1.56,6.52a50.36,50.36,0,0,0,4.08,8.44A140.14,140.14,0,0,0,1468.74,382l-12.66-2.33,7.1,18.73-10.8-8,9.26,31.49-13-7L1446,441.08s-16.18-29.79-24.26-30.87c-6.92-.92-14.64,3-21.1,17.88-4.39,10.14-.44,20-20,38.1-6.94,6.45-19,10.54-35.93-8.6-11.79-13.31-24.36-52.79-28.53-51.41-.89.3-.64,6.52-1.64,11.83a25.5,25.5,0,0,1-4.67,9.67s-7.39-6.43-10.88-10c-3.32-3.4-9.65-10.12-9.65-10.12l-4.28,9.14-18.55-22.11-7.77,10.35,1-25-9.65,4.85L1268,356.1l-11.74,1.76S1279.46,327.59,1282.79,318.33Z" style="fill:url(#radial-gradient)"/><path d="M917.77,483.79c3.7-8.72,127.18-42.16,124,85.11-.49,19.93-46.37,90-54.83,116.31C960.57,767.38,942.6,800,973.05,863.49c3,6.18-25,11.42-37.42,4.41-2.77-1.56-5.36-20.65-8.81-35.22-3.86-16.34-8.43-29.11-8.43-47,0-7.58,6-15.06,9.54-27.14,5.67-19.19,12.73-44.91,10.4-66.24-3.3-30.1,4.68-52.6-22.45-84s-30.09-14.8-23.58-40.84S914.81,490.73,917.77,483.79Z" style="fill:url(#linear-gradient-2)"/><path d="M889.38,584.09c30,22.69,44.84,48.46,46.3,63.93,3,31.3,8,77.83-14.69,127.71-18,39.42-33.69,54.14-33.69,54.14s-18.3-28.78-24-87.21C858.5,693.45,885.81,581.4,889.38,584.09Z" style="fill:url(#radial-gradient-2)"/><path d="M1041.88,572.69c1.2-3.11,4.44,12.73,12.61,21,1.33,1.34.7,20,11.16,22,9.28,1.81,34.32,18.93,37.3,20,2.75,1-45.54,92.5-71.08,119.49-11.93,12.6-30.34,60.35,4,100.14,6.11,7.08-36.88,9.18-41.54,8.11s-17.35-42.67-28.69-62.3c-3.85-6.67-8.37-7.49,11.89-36.87,20.49-29.69,26.51-45.14,25.6-59-3.3-50.32-10-34.68-7-40.73C1005.25,645.88,1027.22,610.89,1041.88,572.69Z" style="fill:url(#linear-gradient-3)"/><path d="M1265.29,820.09c3,10.17-.63,19.9-11.77,17.27-10.77-2.54-45.08,10.63-48.28.52s5.89-21.36,23.53-27S1263.45,813.81,1265.29,820.09Z" style="fill:url(#linear-gradient-4)"/><path d="M1337.29,574.43c4.13,0-14.94,10.44-17.19,26.83s-8,43.7-11.57,62.34-2.58,42.19-5.89,75.94,9.59,77.43,14.52,77.56c4.68.13,25.85-2.8,43.58,10.79,6,4.58,2.1,2.19-27.47,2.51s-22,5.07-36.76,4.94c-10-.09-21.59.15-25.46-14.64-1-3.83,4.86-14.56,2.13-22.92-.72-2.24-3.31-6.38-7.32-9.73-6.4-5.33,3.44-15.66,3.86-28.25,1.33-39.85-4.61-50.94-5.46-75.83-.79-22.8,3.22-43.35-.67-55.31-1.87-5.73-12.27-27.79-7.75-27.62,12,.44,24.94-21.15,39.83-19.67,16.63,1.67,20.16,5.32,28.07,2.56C1335.3,579.9,1335.71,574.45,1337.29,574.43Z" style="fill:url(#linear-gradient-5)"/><path d="M1263.79,784.42c8.56-7.23,7.7-5,11.28-17.8.31-1.1-1.36,25.06-1.7,28.3S1262.65,785.37,1263.79,784.42Z" style="fill:url(#linear-gradient-6)"/><path d="M1240.51,679.88c0,21,2.81,11.2,0,34.21s-1.92,16.91,1.4,30.46.12,15.91-1,25.33c-1.4,12.47.76,16.42,2.18,20.84,1,3.22-.37,8,3.9,13.06,6.08,7.15.33,7.66-5.38,7.19-18.94-1.56-22.86,4.09-36.41,18.63-1.4,1.51,4.59-21.84,1.81-28-5.17-11.36-7.54-27.88-6.31-32,6.16-21,6.34-56.1,3.39-119.65-.71-15.4,2.77-27.53,1.6-37.42-3.54-30.09,4.78-39.64,19-43.46,10.54-2.84,26.87-2.83,32.23,1.4,5,4,1.21,15.26.36,19C1248.86,627.1,1240.51,661.64,1240.51,679.88Z" style="fill:url(#linear-gradient-7)"/><path d="M996.46,665.73c3-13,13.11-18.25,45.42-93.64.91-2.11,4.51,12.82,12.1,20.92,3.41,3.64,3.56,18,11.89,21.26,20.25,7.82,27.9,16,37.08,21.43,1.42.85-7,17.53-11.84,26-6,10.54-9.94,18.49-11.39,21-18.3,31.11-87.31,57.91-82.57,48.82C1011,704.89,995.34,670.56,996.46,665.73Z" style="fill:url(#radial-gradient-3)"/><path d="M1255.84,601c-5.21-.46,7.52,24.32,9,33.46,2.74,16.62,44.39,25.26,44.39,25.26,4.59-17.79,10.07-57.67,12.76-64.46,4.7-11.82,18.61-21.62,15.27-20.87-1.24.29-6.35,7.09-13.55,9.5-6.11,2-14.14-.15-18.24-1.16-12.3-3-15.72-.44-17.23-.38C1282.62,582.64,1264.37,601.79,1255.84,601Z" style="fill:url(#radial-gradient-4)"/><path d="M1326.28,302.79c-.83-1.58-13.51-38.49-27.88-35.75s-13.4,23-12.31,47.21c.44,9.76-.08,9.57,6.8,12C1302.08,329.51,1328,306,1326.28,302.79Z" style="fill:url(#radial-gradient-5)"/><path d="M1402.56,303.22c31.11-20.29,35-38.3,39.28-33.87,10.61,11.1-2.76,36.63,4.17,68.51C1446.8,341.48,1396.56,307.14,1402.56,303.22Z" style="stroke:#1a1818;stroke-miterlimit:10;stroke-width:0.242791320704701px;fill:url(#radial-gradient-6)"/><path d="M1388.2,377.7s.15-9.75,2.73-11.8c3.23-2.55,14,1.5,14,1.5a14.65,14.65,0,0,1-6.46,7.56C1395.42,376.79,1388.2,377.7,1388.2,377.7Z" style="fill:#1a1818"/><path d="M1341.85,377.7s-2.32-10.83-5.14-12.31-12.65,2-12.65,2,1.88,8.25,9.58,8.25S1341.85,377.7,1341.85,377.7Z" style="fill:#1a1818"/><path d="M1351.77,437.27c5-13.41,24-9.43,27.37-7.51,8.35,4.72,7.16,20.22-2.14,22.54s-16.82,2.42-20.58-.89C1351.39,447,1351.77,437.27,1351.77,437.27Z" style="fill:#1a1818"/><path d="M1350.36,456.77c1.11,2.79,11.88,11.82,22.6,8.82s13.16-8.31,12.58-11c-.53-2.46-2.62-2.56-4.65-2-1,.28,1,.28-13.51,2.32-8.08,1.15-12.76-3.37-14.06-2.79C1351.61,452.87,1349.91,455.63,1350.36,456.77Z" style="fill:#1a1818"/><path d="M1325.55,304.64c4.14-6.94-17.67-1.24-39.34,14.51-2.09,1.51,3.18,10.17,13,6.21C1305.77,322.75,1319.56,314.7,1325.55,304.64Z" style="fill:url(#linear-gradient-8)"/><path d="M1402.06,303.85c-2.28,4.61,44.41,37.92,43.26,34.29C1437.11,312.18,1403.28,301.39,1402.06,303.85Z" style="fill:url(#linear-gradient-9)"/><ellipse cx="1228.44" cy="832.35" rx="2.7" ry="7.14" transform="translate(-158.43 304.65) rotate(-13.29)" style="fill:url(#linear-gradient-10)"/><ellipse cx="1257.46" cy="829.31" rx="2.7" ry="7.14" transform="translate(-156.95 311.24) rotate(-13.29)" style="fill:url(#linear-gradient-11)"/><ellipse cx="1216.34" cy="832.35" rx="7.14" ry="2.7" transform="translate(-112.66 1469.56) rotate(-60)" style="fill:url(#linear-gradient-12)"/><ellipse cx="1240.42" cy="830.4" rx="2.7" ry="7.14" transform="translate(-157.66 307.35) rotate(-13.29)" style="fill:url(#linear-gradient-13)"/><path d="M1384,435.9c-5.09-13.08-30-9.53-32.24,2.4,0,0-10-35.54-9.91-60.6,0-2.7,44.15-2.93,46.35,0C1390.13,380.29,1384.5,437.19,1384,435.9Z" style="fill:url(#radial-gradient-7)"/><path d="M1282.19,320.16l-27.61,37.89,13.4-1.95-17.8,28.73,9.65-4.85-1,25,7.77-10.35,18.55,22.11,4.28-9.14s18.58,21,20.27,21c5.83,0,6.57-22.38,6.57-22.38" style="fill:none;stroke:#2d1b10;stroke-miterlimit:10;stroke-width:0.971165282818801px"/><path d="M1446,337.86s1.59,15,7.36,23.56c3.16,4.7,15.37,20.54,15.37,20.54l-12.66-2.33,7.1,18.73-10.8-8,9.26,31.49-13-7L1446,441.08l-4.7-8.16" style="fill:none;stroke:#2d1b10;stroke-miterlimit:10;stroke-width:0.971165282818801px"/><path d="M729.75,906.2h822.59V852.64l-66.91,8.07s-28.29-21.26-58.29-26.7c-16.83-3.06-112.55-8.6-128.75.91-.51.3-12.78-.4-14.84-.91-6.84-1.68-1-1.69-23.64,3.38-4.31,1-8.51-1.75-15.61-.54-21,3.57-30.79,7.47-38.78,1.7-1-.76-13.15,2.47-20.54,3.2-8.4.83-16.81-1.87-18.09-1.29-17.61,7.95-40.23,5.57-54.17,6.31s-60.76,12.49-75.43,11.06c-2.14-.21-12.39,4.84-28.31,5.53-8.91.38-32.09-2.31-35.74,1.35-13.85,13.92-37.61,3.19-37.61,3.19l-41.54,1.61Z" style="fill:url(#radial-gradient-8)"/><line x1="1142.05" y1="990.1" x2="1142.03" y2="990.07" style="fill:#1a1818"/><line x1="1144.05" y1="990.1" x2="1144.03" y2="990.07" style="fill:#1a1818"/><line x1="1146.04" y1="990.1" x2="1146.03" y2="990.07" style="fill:#1a1818"/><line x1="1145.04" y1="990.07" x2="1145.03" y2="990.1" style="fill:#1a1818"/><line x1="1143.05" y1="990.07" x2="1143.03" y2="990.1" style="fill:#1a1818"/><line x1="1200.43" y1="955.42" x2="1627.41" y2="955.42" style="fill:none;stroke:#b58857;stroke-miterlimit:10;stroke-width:1.33019187049728px"/><line x1="668.65" y1="955.42" x2="1125.71" y2="955.42" style="fill:none;stroke:#b58857;stroke-miterlimit:10;stroke-width:1.33019187049728px"/><path d="M1152.59,959.95h0a21,21,0,0,1,21,21v0a0,0,0,0,1,0,0h0a21,21,0,0,1-21-21v0A0,0,0,0,1,1152.59,959.95Z" transform="translate(1299.28 2479.04) rotate(-135)" style="fill:none;stroke:#b58857;stroke-miterlimit:10;stroke-width:1.33019187049728px"/><path d="M1146.84,958.81h0a21,21,0,0,1,21,21v0a0,0,0,0,1,0,0h0a21,21,0,0,1-21-21v0A0,0,0,0,1,1146.84,958.81Z" transform="translate(704.71 2409.45) rotate(-112.5)" style="fill:none;stroke:#b58857;stroke-miterlimit:10;stroke-width:1.33019187049728px"/><path d="M1138.72,950.68h0a21,21,0,0,1,21,21v0a0,0,0,0,1,0,0h0a21,21,0,0,1-21-21v0A0,0,0,0,1,1138.72,950.68Z" transform="translate(-178.58 1655.07) rotate(-67.5)" style="fill:none;stroke:#b58857;stroke-miterlimit:10;stroke-width:1.33019187049728px"/><path d="M1137.58,944.94h0a21,21,0,0,1,21,21v0a0,0,0,0,1,0,0h0a21,21,0,0,1-21-21v0A0,0,0,0,1,1137.58,944.94Z" transform="translate(-339.33 1091.64) rotate(-45)" style="fill:none;stroke:#b58857;stroke-miterlimit:10;stroke-width:1.33019187049728px"/><path d="M1142,934.32h0a21,21,0,0,1,21,21v0a0,0,0,0,1,0,0h0a21,21,0,0,1-21-21v0A0,0,0,0,1,1142,934.32Z" style="fill:none;stroke:#b58857;stroke-miterlimit:10;stroke-width:1.33019187049728px"/><path d="M1146.84,931.07h0a21,21,0,0,1,21,21v0a0,0,0,0,1,0,0h0a21,21,0,0,1-21-21v0A0,0,0,0,1,1146.84,931.07Z" transform="translate(448.41 -371.22) rotate(22.5)" style="fill:none;stroke:#b58857;stroke-miterlimit:10;stroke-width:1.33019187049728px"/><path d="M1158.33,931.07h0a21,21,0,0,1,21,21v0a0,0,0,0,1,0,0h0a21,21,0,0,1-21-21v0A0,0,0,0,1,1158.33,931.07Z" transform="translate(1591.41 -498.61) rotate(67.5)" style="fill:none;stroke:#b58857;stroke-miterlimit:10;stroke-width:1.33019187049728px"/><path d="M1163.2,934.32h0a21,21,0,0,1,21,21v0a0,0,0,0,1,0,0h0a21,21,0,0,1-21-21v0A0,0,0,0,1,1163.2,934.32Z" transform="translate(2118.49 -228.88) rotate(90)" style="fill:none;stroke:#b58857;stroke-miterlimit:10;stroke-width:1.33019187049728px"/><path d="M1166.45,939.19h0a21,21,0,0,1,21,21v0a0,0,0,0,1,0,0h0a21,21,0,0,1-21-21v0A0,0,0,0,1,1166.45,939.19Z" transform="translate(2504.72 225.75) rotate(112.5)" style="fill:none;stroke:#b58857;stroke-miterlimit:10;stroke-width:1.33019187049728px"/><path d="M1166.45,950.68h0a21,21,0,0,1,21,21v0a0,0,0,0,1,0,0h0a21,21,0,0,1-21-21v0A0,0,0,0,1,1166.45,950.68Z" transform="translate(2632.11 1398.77) rotate(157.5)" style="fill:none;stroke:#b58857;stroke-miterlimit:10;stroke-width:1.33019187049728px"/><path d="M1163.2,955.55h0a21,21,0,0,1,21,21v0a0,0,0,0,1,0,0h0a21,21,0,0,1-21-21v0A0,0,0,0,1,1163.2,955.55Z" transform="translate(2347.37 1932.07) rotate(180)" style="fill:none;stroke:#b58857;stroke-miterlimit:10;stroke-width:1.33019187049728px"/><path d="M1142,955.55h0a21,21,0,0,1,21,21v0a0,0,0,0,1,0,0h0a21,21,0,0,1-21-21v0A0,0,0,0,1,1142,955.55Z" transform="translate(186.42 2118.49) rotate(-90)" style="fill:none;stroke:#b58857;stroke-miterlimit:10;stroke-width:1.33019187049728px"/><path d="M1138.72,939.19h0a21,21,0,0,1,21,21v0a0,0,0,0,1,0,0h0a21,21,0,0,1-21-21v0A0,0,0,0,1,1138.72,939.19Z" transform="translate(-275.95 512.07) rotate(-22.5)" style="fill:none;stroke:#b58857;stroke-miterlimit:10;stroke-width:1.33019187049728px"/><path d="M1152.59,929.93h0a21,21,0,0,1,21,21v0a0,0,0,0,1,0,0h0a21,21,0,0,1-21-21v0A0,0,0,0,1,1152.59,929.93Z" transform="translate(1005.63 -546.97) rotate(45)" style="fill:none;stroke:#b58857;stroke-miterlimit:10;stroke-width:1.33019187049728px"/><path d="M1167.6,944.94h0a21,21,0,0,1,21,21v0a0,0,0,0,1,0,0h0a21,21,0,0,1-21-21v0A0,0,0,0,1,1167.6,944.94Z" transform="translate(2686.69 797.98) rotate(135)" style="fill:none;stroke:#b58857;stroke-miterlimit:10;stroke-width:1.33019187049728px"/><path d="M1158.33,958.81h0a21,21,0,0,1,21,21v0a0,0,0,0,1,0,0h0a21,21,0,0,1-21-21v0A0,0,0,0,1,1158.33,958.81Z" transform="translate(1877.72 2312.08) rotate(-157.5)" style="fill:none;stroke:#b58857;stroke-miterlimit:10;stroke-width:1.33019187049728px"/></svg>