<?xml version="1.0" encoding="UTF-8"?>
<svg version="1.1" xmlns="http://www.w3.org/2000/svg" width="778" height="956">
<path d="M0 0 C2.2859499 -0.00697641 4.5718996 -0.0140174 6.85784912 -0.02111816 C14.12528725 -0.04040714 21.39269531 -0.04529352 28.66015625 -0.046875 C29.89533115 -0.04746414 31.13050606 -0.04805328 32.4031105 -0.04866028 C67.66363631 -0.06054515 102.81330326 0.00626848 137.97290039 2.9720459 C140.78796859 3.2086136 143.60377443 3.43390014 146.41992188 3.65722656 C158.87445007 4.65578638 171.30246601 5.84380735 183.72265625 7.203125 C184.55762634 7.29422546 185.39259644 7.38532593 186.25286865 7.47918701 C364.62577528 27.08992154 364.62577528 27.08992154 407.23828125 79.1953125 C421.5520459 98.55656258 420.5522923 119.28196056 417.7746582 142.0625 C417.55208131 143.92849072 417.32982888 145.79452017 417.10786152 147.6605835 C413.82149848 175.1207649 410.312943 202.55487553 406.8359377 229.99144424 C405.76031952 238.47950895 404.68718095 246.96788676 403.61401542 255.45626184 C401.0737803 275.54755897 398.52902759 295.63828299 395.98366629 315.7289312 C394.78922274 325.15705946 393.59547144 334.58527534 392.40176233 344.01349661 C370.36631352 518.05337091 370.36631352 518.05337091 359.74460357 600.98207712 C358.91538759 607.4569415 358.08797097 613.932034 357.26132202 620.40722656 C353.0355857 653.49835832 348.74631942 686.57809962 344.11363912 719.61506939 C343.83104517 721.63099037 343.54924355 723.64702095 343.26751518 725.66306305 C334.67899657 786.95185931 324.62935858 855.44560197 272.515625 896.12890625 C217.65726762 936.86986817 147.56544728 949.66948703 80.72265625 954.203125 C79.54429199 954.29070068 78.36592773 954.37827637 77.15185547 954.46850586 C63.33897745 955.41813267 49.50771416 955.39054776 35.66894531 955.38842773 C32.89283645 955.38834711 30.11689487 955.39520319 27.34082031 955.40893555 C1.92389105 955.53247976 -23.32389592 954.41315236 -48.58984375 951.453125 C-49.65665878 951.32907288 -49.65665878 951.32907288 -50.74502563 951.20251465 C-93.2896997 946.19979457 -136.5922621 937.07300975 -175.27734375 918.203125 C-175.98117188 917.86345703 -176.685 917.52378906 -177.41015625 917.17382812 C-218.0181891 897.34972482 -247.12197375 863.31077698 -262.08203125 820.94140625 C-273.10106742 788.11325206 -277.613583 753.52628572 -282.40625 719.375 C-282.50309963 718.68590892 -282.59994926 717.99681784 -282.69973373 717.28684521 C-287.16171967 685.53228923 -291.28664539 653.73778107 -295.32736671 621.92725569 C-296.08131615 615.99250725 -296.83736016 610.05802831 -297.59451294 604.12368774 C-309.16909015 513.39915677 -320.62625129 422.65956193 -335.86078922 302.19912367 C-336.19638719 299.54503307 -336.5319916 296.89094329 -336.8675977 294.23685372 C-340.91373517 262.23849392 -340.91373517 262.23849392 -342.91245541 246.42343367 C-343.39989352 242.56658221 -343.88740599 238.70974019 -344.37510461 234.85292166 C-344.56586806 233.34427777 -344.75662943 231.83563361 -344.94738865 230.32698917 C-345.04086215 229.58774891 -345.13433566 228.84850864 -345.23064169 228.08686715 C-345.78301906 223.71749826 -346.33453353 219.34802149 -346.88533763 214.978454 C-348.51798739 202.02800121 -350.15645747 189.07853335 -351.84706277 176.13549989 C-352.50938023 171.06316253 -353.16708894 165.99023108 -353.8248769 160.91730464 C-354.27143279 157.49184384 -354.725731 154.06747358 -355.18041897 150.64308453 C-361.50370875 102.29739035 -361.50370875 102.29739035 -347.27734375 81.203125 C-305.05235771 26.91385723 -205.00093572 17.50397085 -142.04296875 9.51171875 C-94.96573651 3.64674474 -47.44947441 0.09010175 0 0 Z " fill="#DFE1E3" transform="translate(358.27734375,0.796875)"/>
<path d="M0 0 C2.2859499 -0.00697641 4.5718996 -0.0140174 6.85784912 -0.02111816 C14.12528725 -0.04040714 21.39269531 -0.04529352 28.66015625 -0.046875 C29.89533115 -0.04746414 31.13050606 -0.04805328 32.4031105 -0.04866028 C67.66363631 -0.06054515 102.81330326 0.00626848 137.97290039 2.9720459 C140.78796859 3.2086136 143.60377443 3.43390014 146.41992188 3.65722656 C158.87445007 4.65578638 171.30246601 5.84380735 183.72265625 7.203125 C184.55762634 7.29422546 185.39259644 7.38532593 186.25286865 7.47918701 C364.62577528 27.08992154 364.62577528 27.08992154 407.23828125 79.1953125 C421.5520459 98.55656258 420.5522923 119.28196056 417.7746582 142.0625 C417.55208131 143.92849072 417.32982888 145.79452017 417.10786152 147.6605835 C413.82149848 175.1207649 410.312943 202.55487553 406.8359377 229.99144424 C405.76031952 238.47950895 404.68718095 246.96788676 403.61401542 255.45626184 C401.0737803 275.54755897 398.52902759 295.63828299 395.98366629 315.7289312 C394.78922274 325.15705946 393.59547144 334.58527534 392.40176233 344.01349661 C370.36631352 518.05337091 370.36631352 518.05337091 359.74460357 600.98207712 C358.91538759 607.4569415 358.08797097 613.932034 357.26132202 620.40722656 C353.0355857 653.49835832 348.74631942 686.57809962 344.11363912 719.61506939 C343.83104517 721.63099037 343.54924355 723.64702095 343.26751518 725.66306305 C334.67899657 786.95185931 324.62935858 855.44560197 272.515625 896.12890625 C217.65726762 936.86986817 147.56544728 949.66948703 80.72265625 954.203125 C79.54429199 954.29070068 78.36592773 954.37827637 77.15185547 954.46850586 C63.33897745 955.41813267 49.50771416 955.39054776 35.66894531 955.38842773 C32.89283645 955.38834711 30.11689487 955.39520319 27.34082031 955.40893555 C1.92389105 955.53247976 -23.32389592 954.41315236 -48.58984375 951.453125 C-49.65665878 951.32907288 -49.65665878 951.32907288 -50.74502563 951.20251465 C-93.2896997 946.19979457 -136.5922621 937.07300975 -175.27734375 918.203125 C-175.98117188 917.86345703 -176.685 917.52378906 -177.41015625 917.17382812 C-218.0181891 897.34972482 -247.12197375 863.31077698 -262.08203125 820.94140625 C-273.10106742 788.11325206 -277.613583 753.52628572 -282.40625 719.375 C-282.50309963 718.68590892 -282.59994926 717.99681784 -282.69973373 717.28684521 C-287.16171967 685.53228923 -291.28664539 653.73778107 -295.32736671 621.92725569 C-296.08131615 615.99250725 -296.83736016 610.05802831 -297.59451294 604.12368774 C-309.16909015 513.39915677 -320.62625129 422.65956193 -335.86078922 302.19912367 C-336.19638719 299.54503307 -336.5319916 296.89094329 -336.8675977 294.23685372 C-340.91373517 262.23849392 -340.91373517 262.23849392 -342.91245541 246.42343367 C-343.39989352 242.56658221 -343.88740599 238.70974019 -344.37510461 234.85292166 C-344.56586806 233.34427777 -344.75662943 231.83563361 -344.94738865 230.32698917 C-345.04086215 229.58774891 -345.13433566 228.84850864 -345.23064169 228.08686715 C-345.78301906 223.71749826 -346.33453353 219.34802149 -346.88533763 214.978454 C-348.51798739 202.02800121 -350.15645747 189.07853335 -351.84706277 176.13549989 C-352.50938023 171.06316253 -353.16708894 165.99023108 -353.8248769 160.91730464 C-354.27143279 157.49184384 -354.725731 154.06747358 -355.18041897 150.64308453 C-361.50370875 102.29739035 -361.50370875 102.29739035 -347.27734375 81.203125 C-305.05235771 26.91385723 -205.00093572 17.50397085 -142.04296875 9.51171875 C-94.96573651 3.64674474 -47.44947441 0.09010175 0 0 Z M-104.65234375 19.578125 C-106.77327302 19.79379942 -108.89420406 20.00945647 -111.01513672 20.22509766 C-129.49623657 22.13026268 -147.91405349 24.37759813 -166.27734375 27.203125 C-167.0933606 27.32838562 -167.90937744 27.45364624 -168.75012207 27.58270264 C-192.89665791 31.31094813 -216.66894586 35.88973217 -240.27734375 42.203125 C-241.39931152 42.5021875 -242.5212793 42.80125 -243.67724609 43.109375 C-267.76519337 49.62100594 -292.64501917 57.79813553 -313.27734375 72.203125 C-314.36595703 72.93982422 -314.36595703 72.93982422 -315.4765625 73.69140625 C-324.15927211 79.82718771 -330.8897547 88.04035785 -334.27734375 98.203125 C-334.77005958 107.55047107 -333.96224345 116.69001006 -332.74853516 125.94702148 C-332.58593704 127.24170349 -332.42333893 128.5363855 -332.2558136 129.87030029 C-331.8151242 133.37758752 -331.36383066 136.8834329 -330.91041231 140.38909411 C-330.43395729 144.08746421 -329.9674855 147.78709417 -329.49984741 151.48658752 C-328.61322885 158.48860356 -327.7176999 165.48944936 -326.81892335 172.489914 C-325.80304012 180.40620887 -324.79764419 188.3238246 -323.79291654 196.24154174 C-322.22364228 208.60516449 -320.64876525 220.96806654 -319.06494141 233.32983398 C-318.9131694 234.51625992 -318.7613974 235.70268585 -318.60502625 236.92506409 C-317.67361057 244.18459243 -316.7167562 251.4404515 -315.74278831 258.69437599 C-314.92925324 264.82720171 -314.1666214 270.96634341 -313.40234375 277.10546875 C-313.23068645 278.48060277 -313.05897288 279.85572976 -312.88720703 281.23085022 C-312.44028655 284.80997997 -311.9941036 288.38920126 -311.5480957 291.96844482 C-311.09891498 295.5721177 -310.64904172 299.17570412 -310.19921875 302.77929688 C-309.53477557 308.10273579 -308.87072895 313.42622394 -308.20703125 318.74975586 C-308.06170204 319.91473634 -307.91637283 321.07971682 -307.76663971 322.27999973 C-307.46496781 324.69877436 -307.16351404 327.11757621 -306.86241913 329.53642273 C-305.27816521 342.24291259 -303.66483587 354.94569991 -302.05273438 367.64868164 C-301.73055401 370.18824624 -301.40838535 372.72781232 -301.08622742 375.26737976 C-300.21655756 382.1226121 -299.34669133 388.97781951 -298.47675896 395.83301854 C-297.9322951 400.12347672 -297.3878742 404.41394034 -296.84346008 408.70440483 C-295.33198547 420.61608907 -293.82045206 432.52776586 -292.30870819 444.43941593 C-292.21235039 445.19865949 -292.11599258 445.95790305 -292.01671484 446.74015399 C-291.92014868 447.50103898 -291.82358251 448.26192397 -291.7240901 449.04586607 C-291.52846231 450.58729937 -291.33283462 452.12873269 -291.13720703 453.67016602 C-291.04017237 454.43474318 -290.9431377 455.19932034 -290.8431626 455.9870665 C-289.26969971 468.38513672 -287.69665967 480.78326054 -286.12379986 493.18140728 C-284.50364603 505.95230169 -282.88313373 518.72315057 -281.26226759 531.4939546 C-280.35432513 538.64769968 -279.44653293 545.80146375 -278.53913879 552.9552784 C-277.6859346 559.68185043 -276.83223913 566.40835994 -275.97821999 573.13482857 C-275.66605651 575.59412061 -275.354053 578.05343296 -275.04222679 580.51276779 C-272.13807478 603.7595227 -272.13807478 603.7595227 -268.79296875 626.9453125 C-267.42912221 635.87937596 -266.33014742 644.82846253 -265.31387329 653.80776978 C-263.33124902 671.2472192 -261.03948972 688.63598082 -258.58984375 706.015625 C-258.43954712 707.08339172 -258.28925049 708.15115845 -258.13439941 709.25128174 C-257.1960013 715.90394126 -256.24326841 722.55440889 -255.27734375 729.203125 C-255.10025879 730.4288623 -254.92317383 731.65459961 -254.74072266 732.91748047 C-251.4259608 755.19946901 -247.39027172 777.80130901 -240.27734375 799.203125 C-240.05256348 799.89631836 -239.8277832 800.58951172 -239.59619141 801.30371094 C-226.74791797 840.32301492 -199.85505158 867.99839535 -163.77734375 886.640625 C-124.17634399 906.34075243 -78.92567232 914.1824367 -35.27734375 918.515625 C-34.46151825 918.59693665 -33.64569275 918.67824829 -32.80514526 918.76202393 C-12.08004897 920.79356202 8.5261853 921.40983382 29.34765625 921.390625 C30.56053314 921.39002075 31.77341003 921.3894165 33.02304077 921.38879395 C70.1574872 921.33870018 107.27205931 919.24533018 143.69824219 911.61279297 C146.52733959 911.04028628 149.37117765 910.58639879 152.22265625 910.140625 C163.27437612 908.34041567 173.99519116 905.36798141 184.72265625 902.203125 C185.66625 901.93371094 186.60984375 901.66429687 187.58203125 901.38671875 C191.74256702 900.18268491 195.68898859 898.86566956 199.640625 897.0703125 C202.47568138 895.88948226 205.37799386 894.94265969 208.28515625 893.953125 C215.76431373 891.30921901 222.70907353 887.91278859 229.72265625 884.203125 C230.68042969 883.708125 231.63820313 883.213125 232.625 882.703125 C245.27599305 876.02369108 256.12542964 867.7187134 266.72265625 858.203125 C267.40070312 857.61015625 268.07875 857.0171875 268.77734375 856.40625 C330.21310797 799.37975115 325.31036139 669.94794998 340.77326822 548.67265034 C341.55003457 542.56065574 342.32721425 536.44871378 343.10455322 530.33679199 C354.04195586 444.33923045 364.959944 358.3392324 375.77602482 272.32631874 C380.60302132 233.94054124 385.4379095 195.55583257 390.32790756 157.17802048 C390.71745131 154.11899854 391.10633774 151.05989373 391.49502563 148.00076294 C392.08594782 143.35077527 392.67865611 138.70101906 393.27292824 134.05145836 C393.48642412 132.37911134 393.69934061 130.70669023 393.91162682 129.03418922 C394.19852077 126.775016 394.48762748 124.51613699 394.77734375 122.25732422 C395.01686768 120.37991043 395.01686768 120.37991043 395.26123047 118.46456909 C395.65519324 115.67996622 396.14681407 112.95437521 396.72265625 110.203125 C398.1064682 100.53216652 394.83556721 93.21461932 389.72265625 85.203125 C367.28714651 55.9837556 317.63421831 45.46389934 284.109375 37.96386719 C281.79998652 37.44512047 279.49275185 36.91671356 277.1875 36.37988281 C206.56180125 19.95922062 132.16634189 14.1235991 59.76953125 14 C58.04318325 13.99575893 58.04318325 13.99575893 56.28195953 13.99143219 C50.16713752 13.97656537 44.05233824 13.96726243 37.9375 13.96289062 C33.01099057 13.95854952 28.08466058 13.94481024 23.15820312 13.921875 C-19.57785031 13.72722588 -62.12746884 15.12056993 -104.65234375 19.578125 Z " fill="#000000" transform="translate(358.27734375,0.796875)"/>
<path d="M0 0 C0.33 0.99 0.66 1.98 1 3 C1.99 3.33 2.98 3.66 4 4 C4 4.66 4 5.32 4 6 C4.56203125 6.25007813 5.1240625 6.50015625 5.703125 6.7578125 C8.35527441 8.1921382 10.4464328 9.93090666 12.75 11.875 C17.00833441 15.32821357 20.9112606 17.94664901 26 20 C26.99 19.67 27.98 19.34 29 19 C29.33 19.99 29.66 20.98 30 22 C31.97667993 22.73292627 33.98508865 23.37985751 36 24 C37.54142911 24.6687006 39.07324258 25.35977539 40.59765625 26.06640625 C75.02475161 41.86665124 112.61061445 50.3335005 149.875 56.375 C150.80430328 56.52618286 151.73360657 56.67736572 152.69107056 56.83312988 C172.73285034 60.07758567 192.8241006 62.7451316 213 65 C213.67905396 65.0764978 214.35810791 65.15299561 215.05773926 65.23181152 C253.12250658 69.49640745 291.70448462 71.5526878 330 72 C331.38850159 72.01643555 331.38850159 72.01643555 332.80505371 72.03320312 C415.31415483 72.94799037 506.52471484 73.35492552 587.28344727 52.93945312 C590.24227643 52.19153388 592.97424787 51.65866426 596 51.375 C596.763125 51.30023438 597.52625 51.22546875 598.3125 51.1484375 C598.869375 51.09945312 599.42625 51.05046875 600 51 C600.33 52.65 600.66 54.3 601 56 C592.29099014 58.2782382 583.60384008 59.73064048 574.6887207 60.90942383 C570.4090998 61.48185203 566.19102377 62.13801134 561.96484375 63.02734375 C557.07714288 64.03761855 552.21848579 64.57140857 547.25 65 C540.29560944 65.61162393 533.41755916 66.49655138 526.50927734 67.50488281 C508.53922434 70.04024301 490.36228316 71.38114537 472.28408813 72.91314697 C470.17166766 73.09304239 468.05949211 73.2758426 465.94760132 73.46185303 C453.8627549 74.52071576 441.90994183 75.20114648 429.77345276 75.00468445 C428.91162888 74.99193985 428.04980499 74.97919525 427.16186523 74.96606445 C426.40381088 74.94929153 425.64575653 74.93251862 424.86473083 74.91523743 C422.90597112 74.8777905 422.90597112 74.8777905 421 76 C418.51264215 76.04698669 416.04836969 76.04360175 413.5625 76 C407.68808404 75.93591066 401.97675635 76.15449117 396.13671875 76.87890625 C394 77 394 77 391 76 C385.54532215 75.68079338 380.37241303 76.02319763 375 77 C373.00038436 77.03920815 370.99950636 77.04443347 369 77 C368.01 77 367.02 77 366 77 C362.96834298 76.7228443 359.93923286 76.42512746 356.91015625 76.12109375 C354.27483386 76.01143604 352.5049788 76.33312645 350 77 C349.34 76.67 348.68 76.34 348 76 C345.5622375 75.92984856 343.14089364 76.00267746 340.703125 76.0625 C338 76 338 76 335.26074219 75.49316406 C331.7989047 74.96958577 328.62525098 74.96824885 325.125 75.046875 C311.80930979 75.18467272 298.50957939 74.19532064 285.22473526 73.38557816 C282.97705918 73.24860196 280.72930222 73.11301115 278.48153687 72.97750854 C243.38487274 70.85206544 208.56823917 67.41044196 173.70487976 62.85246277 C169.91192804 62.35982835 166.11845153 61.89473539 162.31640625 61.47753906 C161.5546106 61.39291412 160.79281494 61.30828918 160.00793457 61.22109985 C158.57841007 61.06410764 157.14833932 60.91197042 155.71765137 60.76596069 C151.30246734 60.27935274 147.24653298 59.28015315 143 58 C140.37519575 57.55065981 137.75853341 57.13656541 135.125 56.75 C127.46792538 55.5506211 119.9664179 53.89579606 112.4375 52.0625 C111.37015625 51.80291504 110.3028125 51.54333008 109.203125 51.27587891 C104.46627962 50.11564239 99.73555677 48.93471267 95.01171875 47.72265625 C87.27138926 45.76830682 80.04668205 44.37434006 72 45 C72 44.34 72 43.68 72 43 C71.3709375 42.89042969 70.741875 42.78085938 70.09375 42.66796875 C64.43835512 41.62035795 59.30856915 40.18765232 54 38 C53.18402344 37.67773438 52.36804688 37.35546875 51.52734375 37.0234375 C49.01234699 36.02957754 46.5048511 35.01913059 44 34 C43.33484375 33.73058594 42.6696875 33.46117187 41.984375 33.18359375 C39.34246339 32.0866261 36.88223086 30.92818955 34.4375 29.4375 C31.71255662 27.83048211 29.02050754 26.9131767 26 26 C26 25.34 26 24.68 26 24 C24.68 24 23.36 24 22 24 C22 23.34 22 22.68 22 22 C20.35 21.67 18.7 21.34 17 21 C16.67 20.01 16.34 19.02 16 18 C15.443125 17.87625 14.88625 17.7525 14.3125 17.625 C9.53529848 16.33386445 5.25919804 11.63525936 2 8 C2 7.34 2 6.68 2 6 C1.34 6 0.68 6 0 6 C0 4.02 0 2.04 0 0 Z " fill="#F6F7F8" transform="translate(30,114)"/>
<path d="M0 0 C1.75406653 0.39920135 3.50318982 0.82015666 5.25 1.25 C6.22453125 1.48203125 7.1990625 1.7140625 8.203125 1.953125 C11.34543272 3.12929605 12.89435431 4.41306387 15 7 C15 7.66 15 8.32 15 9 C15.54914063 8.773125 16.09828125 8.54625 16.6640625 8.3125 C20.79052726 7.76046458 23.76290082 10.61377404 27.1484375 12.75 C30.63873371 14.27999286 32.32883088 13.7505929 36 13 C38.67578125 13.453125 38.67578125 13.453125 41.3125 14.25 C42.2715625 14.53230469 43.230625 14.81460938 44.21875 15.10546875 C46.60685789 15.87355401 48.95569614 16.70508069 51.3125 17.5625 C56.43446756 19.34121964 61.69608046 19.91084485 67.05859375 20.5703125 C70 21 70 21 72 22 C77.73589977 23.43659647 83.07483994 24.1185032 89 24 C90.34061543 24.30271961 91.67405895 24.63837971 93 25 C95.66227302 25.38106035 98.32831815 25.68830378 101 26 C101 26.66 101 27.32 101 28 C101.99 27.67 102.98 27.34 104 27 C104.99 27.66 105.98 28.32 107 29 C109.57123371 29.38477204 109.57123371 29.38477204 112.375 29.5 C115.52270192 29.6734271 117.75761739 29.89480168 120.6640625 31.15625 C121.43492187 31.4346875 122.20578125 31.713125 123 32 C123.99 31.34 124.98 30.68 126 30 C126.763125 30.515625 127.52625 31.03125 128.3125 31.5625 C129.199375 32.036875 130.08625 32.51125 131 33 C131.99 32.67 132.98 32.34 134 32 C134.99 32.66 135.98 33.32 137 34 C137.33 33.34 137.66 32.68 138 32 C142.84800613 32.5936334 147.31646354 33.63751667 152 35 C153.99488234 35.36270588 155.9937811 35.70640699 158 36 C158.33 35.34 158.66 34.68 159 34 C159.66 34.33 160.32 34.66 161 35 C161 35.66 161 36.32 161 37 C161.75925781 36.90460937 162.51851562 36.80921875 163.30078125 36.7109375 C164.29464844 36.60007812 165.28851563 36.48921875 166.3125 36.375 C167.29863281 36.25898437 168.28476562 36.14296875 169.30078125 36.0234375 C172 36 172 36 175 38 C178.14221967 37.68493373 178.14221967 37.68493373 181 37 C180.01 37.99 180.01 37.99 179 39 C200.78 39.495 200.78 39.495 223 40 C223 39.34 223 38.68 223 38 C227.3210739 36.4191193 231.41522012 35.44948822 236 35 C236.33 35.33 236.66 35.66 237 36 C238.51928038 36.07179964 240.04167482 36.08392007 241.5625 36.0625 C242.38878906 36.05347656 243.21507812 36.04445313 244.06640625 36.03515625 C244.70449219 36.02355469 245.34257812 36.01195312 246 36 C246 36.33 246 36.66 246 37 C252.93 37 259.86 37 267 37 C267 37.33 267 37.66 267 38 C245.06831582 40.75819716 223.21326702 41.20796263 201.125 41.1875 C199.30784485 41.18659363 199.30784485 41.18659363 197.45397949 41.18566895 C178.88472391 41.16058445 160.49262778 40.811362 142 39 C140.62337879 38.86972406 139.24675093 38.73951844 137.87011719 38.609375 C97.25418021 34.70729296 56.30599615 27.78960125 18.625 11.625 C17.74328125 11.25117187 16.8615625 10.87734375 15.953125 10.4921875 C9.85143634 7.87973429 3.90456342 5.03095625 -2 2 C-1.34 1.34 -0.68 0.68 0 0 Z " fill="#C7CACE" transform="translate(188,881)"/>
<path d="M0 0 C-2.81925713 1.87950475 -3.85069343 2.31876869 -7.02734375 2.78125 C-7.81375244 2.89992432 -8.60016113 3.01859863 -9.41040039 3.14086914 C-10.24434326 3.25938232 -11.07828613 3.37789551 -11.9375 3.5 C-13.66411142 3.75878839 -15.39067405 4.01790257 -17.1171875 4.27734375 C-17.95604492 4.40093262 -18.79490234 4.52452148 -19.65917969 4.65185547 C-25.97599981 5.59134081 -32.26724239 6.60654119 -38.5 8 C-44.33244615 9.20411792 -50.24127143 9.68798695 -56.16601562 10.21484375 C-62.30903643 10.77463941 -68.38743024 11.61404747 -74.49072266 12.50488281 C-92.4791155 15.04283054 -110.67406843 16.38244004 -128.77084351 17.91314697 C-130.89008567 18.09320034 -133.00909574 18.27601112 -135.12783813 18.46185303 C-149.12260675 19.68309233 -162.95232626 20.23870071 -177 20 C-176.67 19.34 -176.34 18.68 -176 18 C-175.15147461 17.96559814 -174.30294922 17.93119629 -173.42871094 17.89575195 C-150.60398713 16.92285036 -127.92765672 15.0819856 -105.20019531 12.76489258 C-103.07752518 12.54978688 -100.9548048 12.33517646 -98.83203125 12.12109375 C-97.81692474 12.01845718 -96.80181824 11.91582062 -95.75595093 11.81007385 C-88.61516226 11.10795309 -81.48151754 10.60746237 -74.31196594 10.31919861 C-70.53016683 10.21400236 -70.53016683 10.21400236 -67 9 C-64.66922657 8.69208131 -62.33758104 8.49104726 -59.99609375 8.28125 C-58.00416869 8.20467988 -58.00416869 8.20467988 -57 7 C-53.56531623 6.76090047 -50.13761962 6.60539878 -46.69726562 6.48242188 C-41.53616986 6.24310597 -36.99019726 5.33562709 -32 4 C-30.5881954 3.81286483 -29.17096028 3.65780831 -27.75 3.5625 C-24.02794854 3.20893725 -20.55551495 2.44204918 -16.9375 1.5 C-4.89810172 -1.63270057 -4.89810172 -1.63270057 0 0 Z " fill="#EAEDEF" transform="translate(631,169)"/>
<path d="M0 0 C0.33 0.99 0.66 1.98 1 3 C1.99 3.33 2.98 3.66 4 4 C4 4.66 4 5.32 4 6 C4.57105469 6.25652344 5.14210938 6.51304688 5.73046875 6.77734375 C8.23406803 8.12609861 10.1513889 9.71491797 12.3125 11.5625 C30.39419108 26.0854212 52.24146782 33.90666216 74.24169922 40.48852539 C75.24346191 40.79137451 76.24522461 41.09422363 77.27734375 41.40625 C78.16671631 41.66728516 79.05608887 41.92832031 79.97241211 42.19726562 C82 43 82 43 83 45 C79.37 45 75.74 45 72 45 C72 44.34 72 43.68 72 43 C71.3709375 42.89042969 70.741875 42.78085938 70.09375 42.66796875 C64.43835512 41.62035795 59.30856915 40.18765232 54 38 C53.18402344 37.67773438 52.36804688 37.35546875 51.52734375 37.0234375 C49.01234699 36.02957754 46.5048511 35.01913059 44 34 C43.33484375 33.73058594 42.6696875 33.46117187 41.984375 33.18359375 C39.34246339 32.0866261 36.88223086 30.92818955 34.4375 29.4375 C31.71255662 27.83048211 29.02050754 26.9131767 26 26 C26 25.34 26 24.68 26 24 C24.68 24 23.36 24 22 24 C22 23.34 22 22.68 22 22 C20.35 21.67 18.7 21.34 17 21 C16.67 20.01 16.34 19.02 16 18 C15.443125 17.87625 14.88625 17.7525 14.3125 17.625 C9.53529848 16.33386445 5.25919804 11.63525936 2 8 C2 7.34 2 6.68 2 6 C1.34 6 0.68 6 0 6 C0 4.02 0 2.04 0 0 Z " fill="#EAECEF" transform="translate(30,114)"/>
<path d="M0 0 C1.54023996 0.06950541 3.08334988 0.08452357 4.625 0.0625 C5.44226563 0.05347656 6.25953125 0.04445313 7.1015625 0.03515625 C8.04128906 0.01775391 8.04128906 0.01775391 9 0 C9 0.33 9 0.66 9 1 C15.93 1 22.86 1 30 1 C30 1.33 30 1.66 30 2 C8.06743636 4.75830776 -13.78608679 5.20287591 -35.875 5.1875 C-37.07846069 5.18789276 -38.28192139 5.18828552 -39.52185059 5.18869019 C-58.09588985 5.18144362 -76.49842722 4.70636587 -95 3 C-96.59618164 2.85667236 -96.59618164 2.85667236 -98.22460938 2.71044922 C-100.816718 2.47686283 -103.40848682 2.24008657 -106 2 C-106 1.67 -106 1.34 -106 1 C-102.91722144 0.8025123 -99.8337715 0.61876668 -96.75 0.4375 C-95.87730469 0.38142578 -95.00460937 0.32535156 -94.10546875 0.26757812 C-93.26113281 0.21923828 -92.41679687 0.17089844 -91.546875 0.12109375 C-90.77182617 0.0739624 -89.99677734 0.02683105 -89.19824219 -0.02172852 C-86.95689845 0.00042604 -85.16430167 0.4581906 -83 1 C-80.92120924 1.0168965 -80.92120924 1.0168965 -78.77734375 0.80859375 C-77.99166016 0.75123047 -77.20597656 0.69386719 -76.39648438 0.63476562 C-74.75296494 0.50291855 -73.10972956 0.36748305 -71.46679688 0.22851562 C-70.68240234 0.17244141 -69.89800781 0.11636719 -69.08984375 0.05859375 C-68.37691162 -0.00013916 -67.66397949 -0.05887207 -66.92944336 -0.11938477 C-65 0 -65 0 -62 2 C-58.85778033 1.68493373 -58.85778033 1.68493373 -56 1 C-56.66 1.66 -57.32 2.32 -58 3 C-36.22 3.495 -36.22 3.495 -14 4 C-14 3.34 -14 2.68 -14 2 C-3.5 -1.75 -3.5 -1.75 0 0 Z " fill="#747679" transform="translate(425,917)"/>
<path d="M0 0 C3.09322404 0.3344026 4.58887768 0.5595118 6.75 2.875 C8 5 8 5 9 8 C9.66 8.33 10.32 8.66 11 9 C11 9.66 11 10.32 11 11 C11.66 11 12.32 11 13 11 C14.21880826 12.48233437 15.43482925 13.96723194 16.625 15.47265625 C18.45671525 17.50731723 20.63974034 18.65128019 23 20 C23 20.66 23 21.32 23 22 C23.639375 22.103125 24.27875 22.20625 24.9375 22.3125 C25.618125 22.539375 26.29875 22.76625 27 23 C27.33 23.99 27.66 24.98 28 26 C28.99 26.33 29.98 26.66 31 27 C35.62040332 31.16963227 35.62040332 31.16963227 37 34.1875 C38.43451323 36.78755524 40.26160597 36.98106269 43 38 C44.69321939 39.29944744 46.36395804 40.62926214 48 42 C48.99 42.495 48.99 42.495 50 43 C50 43.66 50 44.32 50 45 C44.75396898 43.04416265 40.56743406 40.19153001 36 37 C35.12859375 36.39929688 34.2571875 35.79859375 33.359375 35.1796875 C19.77280854 25.59145345 8.42748217 14.40827596 0 0 Z " fill="#BBBDC0" transform="translate(136,837)"/>
<path d="M0 0 C0.495 1.98 0.495 1.98 1 4 C-1.63753861 5.3187693 -3.99090369 5.42925646 -6.92578125 5.75390625 C-8.11494141 5.88603516 -9.30410156 6.01816406 -10.52929688 6.15429688 C-11.77775391 6.28900391 -13.02621094 6.42371094 -14.3125 6.5625 C-15.54935547 6.70107422 -16.78621094 6.83964844 -18.06054688 6.98242188 C-28.15400782 8.08937626 -28.15400782 8.08937626 -33 8 C-33 7.01 -33 6.02 -33 5 C-33.67546875 5.144375 -34.3509375 5.28875 -35.046875 5.4375 C-35.93890625 5.623125 -36.8309375 5.80875 -37.75 6 C-39.07257813 6.2784375 -39.07257813 6.2784375 -40.421875 6.5625 C-43 7 -43 7 -47 7 C-47 6.34 -47 5.68 -47 5 C-46.40832031 4.95101563 -45.81664062 4.90203125 -45.20703125 4.8515625 C-44.41683594 4.77679687 -43.62664062 4.70203125 -42.8125 4.625 C-42.03519531 4.55539063 -41.25789062 4.48578125 -40.45703125 4.4140625 C-37.97096863 4.09101678 -37.97096863 4.09101678 -35.6875 3.03125 C-32.24511957 1.71033658 -28.82612583 1.27961486 -25.1875 0.875 C-24.45281494 0.79008301 -23.71812988 0.70516602 -22.96118164 0.61767578 C-15.30336712 -0.19408359 -7.68975401 -0.18629283 0 0 Z " fill="#ECEEF0" transform="translate(253,22)"/>
<path d="M0 0 C1.75406653 0.39920135 3.50318982 0.82015666 5.25 1.25 C6.22453125 1.48203125 7.1990625 1.7140625 8.203125 1.953125 C11.34543272 3.12929605 12.89435431 4.41306387 15 7 C15 7.66 15 8.32 15 9 C15.54914063 8.773125 16.09828125 8.54625 16.6640625 8.3125 C20.79052726 7.76046458 23.76290082 10.61377404 27.1484375 12.75 C30.60105702 14.26347705 32.3891827 13.81370531 36 13 C36.66 13.33 37.32 13.66 38 14 C38 14.66 38 15.32 38 16 C39.57587891 16.38091797 39.57587891 16.38091797 41.18359375 16.76953125 C48.56859029 18.5735804 55.83240636 20.44014513 63 23 C63 23.66 63 24.32 63 25 C56.86114705 24.66515348 51.30562044 23.36145199 45.4375 21.625 C44.37607788 21.31139526 44.37607788 21.31139526 43.29321289 20.99145508 C34.83498203 18.42589286 26.74239766 15.10724595 18.625 11.625 C17.74328125 11.25117187 16.8615625 10.87734375 15.953125 10.4921875 C9.85143634 7.87973429 3.90456342 5.03095625 -2 2 C-1.34 1.34 -0.68 0.68 0 0 Z " fill="#A5A7AA" transform="translate(188,881)"/>
<path d="M0 0 C28.71 0 57.42 0 87 0 C85 2 85 2 81.69140625 2.16015625 C80.31492912 2.13611959 78.93858987 2.10304283 77.5625 2.0625 C71.67981969 1.96126841 65.98699291 2.1532214 60.13671875 2.87890625 C58 3 58 3 55 2 C49.54532215 1.68079338 44.37241303 2.02319763 39 3 C37.00038436 3.03920815 34.99950636 3.04443347 33 3 C32.01 3 31.02 3 30 3 C26.96834298 2.7228443 23.93923286 2.42512746 20.91015625 2.12109375 C18.27483386 2.01143604 16.5049788 2.33312645 14 3 C13.34 2.67 12.68 2.34 12 2 C9.43154781 1.96962979 6.879238 2.06688815 4.3125 2.16015625 C2 2 2 2 0 0 Z " fill="#EAEDEF" transform="translate(366,188)"/>
<path d="M0 0 C8.9307466 -0.5796398 17.3106671 1.22382374 26 3 C33.32540928 4.44653652 40.54992258 5.4524121 48 6 C47.01 6.66 46.02 7.32 45 8 C52.26 8.99 59.52 9.98 67 11 C67 11.33 67 11.66 67 12 C56.41883457 11.5603121 46.14423246 10.43413772 35.71826172 8.58081055 C33.50274016 8.18798585 31.28495626 7.8108471 29.06640625 7.43554688 C19.24973704 5.74378805 9.62890332 3.54657438 0 1 C0 0.67 0 0.34 0 0 Z " fill="#95979A" transform="translate(251,906)"/>
<path d="M0 0 C0.928125 0.515625 1.85625 1.03125 2.8125 1.5625 C5.92757947 3.40096246 5.92757947 3.40096246 9 2 C9.99 2.66 10.98 3.32 12 4 C12.33 3.34 12.66 2.68 13 2 C17.84800613 2.5936334 22.31646354 3.63751667 27 5 C28.99488234 5.36270588 30.9937811 5.70640699 33 6 C33.33 5.34 33.66 4.68 34 4 C34.66 4.33 35.32 4.66 36 5 C36 5.66 36 6.32 36 7 C34.35492782 7.19406478 32.70890406 7.38007935 31.0625 7.5625 C29.68771484 7.71912109 29.68771484 7.71912109 28.28515625 7.87890625 C27.53105469 7.91886719 26.77695312 7.95882812 26 8 C25.505 7.505 25.505 7.505 25 7 C22.97165008 7.00428374 20.94305624 7.01637945 18.9152832 7.06494141 C10.10093017 7.26833047 1.55175323 6.81000789 -7.1875 5.625 C-8.14938232 5.49883301 -9.11126465 5.37266602 -10.10229492 5.24267578 C-15.17278507 4.50563511 -15.17278507 4.50563511 -17 4 C-17.33 3.34 -17.66 2.68 -18 2 C-16.86820312 2.02320313 -15.73640625 2.04640625 -14.5703125 2.0703125 C-13.08854825 2.08906901 -11.60677688 2.10726934 -10.125 2.125 C-9.00544922 2.15013672 -9.00544922 2.15013672 -7.86328125 2.17578125 C-5.90805539 2.1933959 -3.95257979 2.10320189 -2 2 C-1.34 1.34 -0.68 0.68 0 0 Z " fill="#B9BDC1" transform="translate(313,911)"/>
<path d="M0 0 C2.23476954 0.52574951 3.98138913 0.48016638 6.26391602 0.28881836 C7.04959961 0.23145508 7.8352832 0.1740918 8.64477539 0.11499023 C10.28829482 -0.01685684 11.9315302 -0.15229234 13.57446289 -0.29125977 C14.35885742 -0.34733398 15.14325195 -0.4034082 15.95141602 -0.46118164 C17.02081421 -0.54928101 17.02081421 -0.54928101 18.11181641 -0.63916016 C20.04125977 -0.51977539 20.04125977 -0.51977539 23.04125977 1.48022461 C26.18347943 1.16515834 26.18347943 1.16515834 29.04125977 0.48022461 C28.38125977 1.47022461 27.72125977 2.46022461 27.04125977 3.48022461 C24.88427734 3.85253906 24.88427734 3.85253906 22.18579102 3.84350586 C20.67843384 3.84447266 20.67843384 3.84447266 19.140625 3.84545898 C18.05595947 3.82805664 16.97129395 3.8106543 15.85375977 3.79272461 C14.74782471 3.7843457 13.64188965 3.7759668 12.50244141 3.76733398 C1.29744898 3.60818346 -9.82154921 2.6727588 -20.95874023 1.48022461 C-20.95874023 1.15022461 -20.95874023 0.82022461 -20.95874023 0.48022461 C-4.55410784 -1.20848755 -4.55410784 -1.20848755 0 0 Z " fill="#ABAFB3" transform="translate(339.958740234375,917.519775390625)"/>
<path d="M0 0 C0.99 0.66 1.98 1.32 3 2 C-2.81419184 4.43701233 -8.60431627 6.58303102 -14.67578125 8.2890625 C-17.00885326 8.96260006 -17.00885326 8.96260006 -19.22265625 9.91796875 C-23.11931285 11.43607547 -27.10217354 12.55426397 -31.125 13.6875 C-31.93582031 13.92533203 -32.74664063 14.16316406 -33.58203125 14.40820312 C-34.36191406 14.62798828 -35.14179687 14.84777344 -35.9453125 15.07421875 C-36.65187988 15.27619873 -37.35844727 15.47817871 -38.08642578 15.6862793 C-40 16 -40 16 -43 15 C-39.90322764 13.96774255 -36.81280544 12.94348843 -33.6875 12 C-30.86445017 11.29749888 -30.86445017 11.29749888 -30 9 C-25.52459016 7.73770492 -25.52459016 7.73770492 -23 9 C-21.29159719 7.36587557 -20.06546953 6.13093906 -19 4 C-18.01 4 -17.02 4 -16 4 C-16 4.99 -16 5.98 -16 7 C-15.01 7 -14.02 7 -13 7 C-12.67 6.01 -12.34 5.02 -12 4 C-8.5625 2.25 -8.5625 2.25 -5 1 C-4.34 1.33 -3.68 1.66 -3 2 C-2.01 1.34 -1.02 0.68 0 0 Z " fill="#9EA1A5" transform="translate(565,892)"/>
<path d="M0 0 C4.49935956 2.66466925 8.35000612 5.2196492 12 9 C14.13309192 10.23512079 14.13309192 10.23512079 16 11 C16 11.66 16 12.32 16 13 C16.721875 13.2475 17.44375 13.495 18.1875 13.75 C21.25321959 15.11254204 23.43829118 16.85370342 26 19 C26.66 19.33 27.32 19.66 28 20 C28 20.66 28 21.32 28 22 C22.75411008 20.04421525 18.56681372 17.19185905 14 14 C12.57107422 13.01193359 12.57107422 13.01193359 11.11328125 12.00390625 C10.14777344 11.32199219 9.18226563 10.64007812 8.1875 9.9375 C7.29417969 9.30714844 6.40085938 8.67679688 5.48046875 8.02734375 C2.89240906 5.91206347 0.98946505 3.6758073 -1 1 C-0.67 0.67 -0.34 0.34 0 0 Z " fill="#B1B2B6" transform="translate(158,860)"/>
<path d="M0 0 C4.455 0.99 4.455 0.99 9 2 C6.01664494 3.98890337 4.74595727 4.37528223 1.31640625 4.8515625 C0.39359863 4.98071045 -0.52920898 5.1098584 -1.47998047 5.24291992 C-2.94395264 5.43204956 -2.94395264 5.43204956 -4.4375 5.625 C-5.92080811 5.82283081 -5.92080811 5.82283081 -7.43408203 6.0246582 C-14.33768573 6.90077592 -21.03861055 7.39653484 -28 7 C-27.67 6.34 -27.34 5.68 -27 5 C-22.38 5 -17.76 5 -13 5 C-13 4.34 -13 3.68 -13 3 C-10.69 2.34 -8.38 1.68 -6 1 C-6 1.99 -6 2.98 -6 4 C-2.535 3.505 -2.535 3.505 1 3 C0.67 2.01 0.34 1.02 0 0 Z " fill="#7F8184" transform="translate(484,911)"/>
<path d="M0 0 C6.18090531 -0.2065049 11.71530132 0.50987666 17.75 1.8125 C18.58660156 1.97814453 19.42320312 2.14378906 20.28515625 2.31445312 C21.49751953 2.5706543 21.49751953 2.5706543 22.734375 2.83203125 C23.45850586 2.98389893 24.18263672 3.1357666 24.92871094 3.29223633 C27.36374422 4.12429214 29.02368963 5.37302337 31 7 C23.75229032 6.48089929 16.91609716 5.20271888 9.875 3.4375 C8.91851563 3.20353516 7.96203125 2.96957031 6.9765625 2.72851562 C4.64948012 2.15838044 2.32410068 1.58214777 0 1 C0 0.67 0 0.34 0 0 Z " fill="#EDEFF0" transform="translate(612,34)"/>
<path d="M0 0 C8.07613852 -0.64323227 14.48666996 1.1082716 22 4 C22 4.66 22 5.32 22 6 C14.2501365 5.47458553 7.3549914 3.44408524 0 1 C0 0.67 0 0.34 0 0 Z " fill="#A4A6AA" transform="translate(229,900)"/>
<path d="M0 0 C0.96099609 0.2165625 0.96099609 0.2165625 1.94140625 0.4375 C7.07806098 1.53985213 11.7239553 2.10552089 17 2 C18.34061543 2.30271961 19.67405895 2.63837971 21 3 C23.66227302 3.38106035 26.32831815 3.68830378 29 4 C29 4.66 29 5.32 29 6 C29.99 5.67 30.98 5.34 32 5 C32 5.66 32 6.32 32 7 C24.46141012 6.69905829 17.18801918 5.57962287 9.8125 4.0625 C8.96260498 3.89266602 8.11270996 3.72283203 7.23706055 3.54785156 C5.14204928 3.10124475 3.06796256 2.55862393 1 2 C0.67 1.34 0.34 0.68 0 0 Z " fill="#D1D4D8" transform="translate(260,903)"/>
<path d="M0 0 C6.625 0.75 6.625 0.75 10 3 C11.71383721 3.58837246 13.44519841 4.12719954 15.1875 4.625 C16.08855469 4.88539063 16.98960937 5.14578125 17.91796875 5.4140625 C18.60503906 5.60742188 19.29210937 5.80078125 20 6 C20 7.32 20 8.64 20 10 C16.50162406 8.97608509 13.47524342 7.76326921 10.375 5.875 C7.06070537 3.67623805 7.06070537 3.67623805 3 4 C3 3.34 3 2.68 3 2 C2.01 1.67 1.02 1.34 0 1 C0 0.67 0 0.34 0 0 Z " fill="#C8CBCE" transform="translate(200,886)"/>
<path d="M0 0 C0.33 0 0.66 0 1 0 C1.12117188 0.845625 1.24234375 1.69125 1.3671875 2.5625 C1.53476562 3.696875 1.70234375 4.83125 1.875 6 C2.03742187 7.11375 2.19984375 8.2275 2.3671875 9.375 C2.95089552 13.06361296 2.95089552 13.06361296 4.0625 16.84375 C5.24354132 21.41353078 5.22439309 25.8055877 5.125 30.5 C5.11597656 31.32242188 5.10695313 32.14484375 5.09765625 32.9921875 C5.07436865 34.99492083 5.03850959 36.99750154 5 39 C4.67 39 4.34 39 4 39 C3.42469313 34.57159069 2.85523983 30.14247819 2.29101562 25.71264648 C2.09858234 24.20821214 1.90459777 22.70397533 1.70898438 21.19995117 C1.42682651 19.02834328 1.15039965 16.85606781 0.875 14.68359375 C0.70742188 13.37962646 0.53984375 12.07565918 0.3671875 10.73217773 C0.01241792 7.1262186 -0.06556683 3.6205184 0 0 Z " fill="#999B9E" transform="translate(37,209)"/>
<path d="M0 0 C2.32787927 0.36950465 4.66045145 0.71352467 7 1 C7 1.33 7 1.66 7 2 C-0.43526601 2.14841673 -7.72483517 1.69670763 -15.125 1 C-16.176875 0.90460937 -17.22875 0.80921875 -18.3125 0.7109375 C-20.87539348 0.47794718 -23.43784031 0.24090324 -26 0 C-26 -0.33 -26 -0.66 -26 -1 C-8.92277742 -2.75794938 -8.92277742 -2.75794938 0 0 Z " fill="#7E8083" transform="translate(345,919)"/>
<path d="M0 0 C0.66 0 1.32 0 2 0 C2 0.66 2 1.32 2 2 C2.58265625 2.11601563 3.1653125 2.23203125 3.765625 2.3515625 C6.14485387 3.04203801 7.71027466 3.98427818 9.75 5.375 C13.6903578 7.93030722 17.55932048 9.49334088 22 11 C22 11.66 22 12.32 22 13 C20.54077307 12.88590407 19.08259402 12.75834456 17.625 12.625 C16.81289062 12.55539062 16.00078125 12.48578125 15.1640625 12.4140625 C13 12 13 12 11 10 C9.01065205 8.48370294 6.99210795 7.0110546 4.97265625 5.53515625 C3.15752253 4.12258684 1.54604152 2.70113033 0 1 C0 0.67 0 0.34 0 0 Z " fill="#C8CBCE" transform="translate(173,870)"/>
<path d="M0 0 C2.475 0.99 2.475 0.99 5 2 C5 2.66 5 3.32 5 4 C5.639375 4.103125 6.27875 4.20625 6.9375 4.3125 C7.618125 4.539375 8.29875 4.76625 9 5 C9.33 5.99 9.66 6.98 10 8 C10.99 8.33 11.98 8.66 13 9 C14.84499398 10.87617698 16.3683599 12.92737609 18 15 C15.5625 14.1875 15.5625 14.1875 13 13 C12.67 12.01 12.34 11.02 12 10 C10.16715557 8.87483915 10.16715557 8.87483915 8 8 C7.319375 7.649375 6.63875 7.29875 5.9375 6.9375 C3.86589825 5.88388051 3.86589825 5.88388051 1 5 C0.67 3.35 0.34 1.7 0 0 Z " fill="#CDD0D3" transform="translate(154,855)"/>
<path d="M0 0 C0.33 0 0.66 0 1 0 C3.07979208 7.05014265 4.53616498 12.73812918 3 20 C3.66 20.33 4.32 20.66 5 21 C4.67 23.97 4.34 26.94 4 30 C3.67 30 3.34 30 3 30 C2.49384729 26.12577792 1.99617279 22.25051183 1.5 18.375 C1.35691406 17.28058594 1.21382813 16.18617188 1.06640625 15.05859375 C0.93105469 13.99511719 0.79570313 12.93164062 0.65625 11.8359375 C0.53056641 10.86188965 0.40488281 9.8878418 0.27539062 8.88427734 C-0.00906019 5.90510895 -0.04655007 2.99084203 0 0 Z " fill="#999B9E" transform="translate(83,573)"/>
<path d="M0 0 C-6.53154356 3.34171996 -15.05543903 5.93567549 -22.39453125 4.546875 C-22.92433594 4.36640625 -23.45414063 4.1859375 -24 4 C-21.64716625 3.34895849 -19.29291551 2.70407878 -16.9375 2.0625 C-16.28072266 1.88009766 -15.62394531 1.69769531 -14.94726562 1.50976562 C-3.29467851 -1.64733926 -3.29467851 -1.64733926 0 0 Z " fill="#EDEEF0" transform="translate(655,164)"/>
<path d="M0 0 C1.65 0.33 3.3 0.66 5 1 C5 1.66 5 2.32 5 3 C9.455 3.99 9.455 3.99 14 5 C14 5.33 14 5.66 14 6 C7.86946489 6.32712342 3.37330889 6.39366878 -2 3 C-1.34 2.01 -0.68 1.02 0 0 Z " fill="#ACAFB2" transform="translate(221,894)"/>
<path d="M0 0 C1.66623639 0.03786901 3.33397597 0.04627845 5 0 C0.7984102 2.21985275 -3.50269754 3.41626039 -8.0625 4.6875 C-8.87783203 4.92533203 -9.69316406 5.16316406 -10.53320312 5.40820312 C-11.31759766 5.62798828 -12.10199219 5.84777344 -12.91015625 6.07421875 C-13.62308838 6.27619873 -14.33602051 6.47817871 -15.07055664 6.6862793 C-17 7 -17 7 -20 6 C-16.90322764 4.96774255 -13.81280544 3.94348843 -10.6875 3 C-7.86445017 2.29749888 -7.86445017 2.29749888 -7 0 C-3.7220142 -1.09266193 -3.15868803 -0.8361233 0 0 Z " fill="#888B8D" transform="translate(542,901)"/>
<path d="M0 0 C2.40633842 3.60950763 2.59427249 6.74122566 3 10.9375 C3.42843059 15.3447813 3.90603735 19.04370774 6 23 C5.125 25.75 5.125 25.75 4 28 C3.67 28 3.34 28 3 28 C2.49468813 24.27153308 1.9966867 20.54212492 1.5 16.8125 C1.35691406 15.75740234 1.21382813 14.70230469 1.06640625 13.61523438 C0.93105469 12.59365234 0.79570313 11.57207031 0.65625 10.51953125 C0.53056641 9.58214111 0.40488281 8.64475098 0.27539062 7.67895508 C0.00995308 5.09682192 -0.04936064 2.59349011 0 0 Z " fill="#95979A" transform="translate(72,488)"/>
<path d="M0 0 C2.7749654 4.1624481 2.74959455 8.42628709 3.2109375 13.28320312 C3.54498647 17.59566111 3.54498647 17.59566111 6 21 C5.61121812 24.01305957 4.73543126 25.39685311 3 28 C2.49595781 24.08384244 1.99746767 20.1669977 1.5 16.25 C1.35691406 15.13882812 1.21382812 14.02765625 1.06640625 12.8828125 C0.93105469 11.81289063 0.79570313 10.74296875 0.65625 9.640625 C0.53056641 8.65610352 0.40488281 7.67158203 0.27539062 6.65722656 C0 4 0 4 0 0 Z " fill="#8E9094" transform="translate(43,259)"/>
<path d="M0 0 C0.66 0 1.32 0 2 0 C2.33 0.99 2.66 1.98 3 3 C-3.93 6.465 -3.93 6.465 -11 10 C-8.69067139 5.38134278 -7.48407304 5.10476898 -3 3 C-1.98198643 2.01834406 -0.9753197 1.02408568 0 0 Z " fill="#B4B6B9" transform="translate(594,877)"/>
<path d="M0 0 C2.78566115 2.78566115 2.49240714 5.12960447 3 9 C3.37125 10.11375 3.7425 11.2275 4.125 12.375 C5.20624675 16.85445082 4.75430019 20.50477858 4 25 C3.67 25 3.34 25 3 25 C2.01 16.75 1.02 8.5 0 0 Z " fill="#9B9DA0" transform="translate(97,684)"/>
<path d="M0 0 C2.3879408 2.3879408 2.35381724 3.76908619 3 7 C3.66 7.66 4.32 8.32 5 9 C4.9765625 10.84765625 4.9765625 10.84765625 4.625 13.0625 C3.97716797 17.75737684 3.92481181 22.26314391 4 27 C3.67 27 3.34 27 3 27 C2.01 18.09 1.02 9.18 0 0 Z " fill="#989A9D" transform="translate(24,110)"/>
<path d="M0 0 C2.37531394 -0.0543965 4.74935883 -0.09385864 7.125 -0.125 C7.79015625 -0.14175781 8.4553125 -0.15851562 9.140625 -0.17578125 C13.49516056 -0.21847278 16.95600114 0.40003783 21 2 C21 2.33 21 2.66 21 3 C18.43719792 2.85845864 15.87484515 2.71191438 13.3125 2.5625 C12.59126953 2.52318359 11.87003906 2.48386719 11.12695312 2.44335938 C7.33292718 2.21814322 3.71348508 1.87160695 0 1 C0 0.67 0 0.34 0 0 Z " fill="#ECEDEF" transform="translate(535,23)"/>
<path d="M0 0 C1.32 1.65 2.64 3.3 4 5 C3.34 5 2.68 5 2 5 C2.144375 5.83402344 2.28875 6.66804688 2.4375 7.52734375 C3.52436114 14.11643939 4.22629031 20.32443581 4 27 C3.67 27 3.34 27 3 27 C2.49578271 23.25055444 1.99735969 19.50036087 1.5 15.75 C1.35691406 14.68652344 1.21382812 13.62304688 1.06640625 12.52734375 C0.93105469 11.50253906 0.79570313 10.47773438 0.65625 9.421875 C0.53056641 8.47924805 0.40488281 7.53662109 0.27539062 6.56542969 C0 4 0 4 0 0 Z " fill="#909295" transform="translate(61,402)"/>
<path d="M0 0 C1.41875765 0.76697796 2.83491452 1.53876778 4.25 2.3125 C5.03890625 2.74175781 5.8278125 3.17101562 6.640625 3.61328125 C8.91454767 4.94977554 10.99505799 6.28476292 13 8 C13 8.66 13 9.32 13 10 C9.37723685 8.6744419 6.36494652 7.05653045 3.1875 4.875 C2.39730469 4.33617187 1.60710937 3.79734375 0.79296875 3.2421875 C0.20128906 2.83226562 -0.39039063 2.42234375 -1 2 C-0.67 1.34 -0.34 0.68 0 0 Z " fill="#9FA1A4" transform="translate(173,872)"/>
<path d="M0 0 C0.66 0.66 1.32 1.32 2 2 C1.67 2.66 1.34 3.32 1 4 C-3.29 4 -7.58 4 -12 4 C-7.31153036 0.48364777 -5.65686779 0.27371941 0 0 Z " fill="#B2B6BB" transform="translate(423,916)"/>
<path d="M0 0 C5.31027254 1.46032495 9.46330032 3.98320986 14 7 C13.01 7.495 13.01 7.495 12 8 C9.92803369 7.26821134 7.8891448 6.44100997 5.875 5.5625 C4.77929688 5.08941406 3.68359375 4.61632812 2.5546875 4.12890625 C1.71164063 3.75636719 0.86859375 3.38382813 0 3 C0 2.01 0 1.02 0 0 Z " fill="#9C9EA1" transform="translate(205,889)"/>
<path d="M0 0 C6.27 0.33 12.54 0.66 19 1 C19 1.33 19 1.66 19 2 C16.95999027 2.22397733 14.91783811 2.42848537 12.875 2.625 C11.73804688 2.74101562 10.60109375 2.85703125 9.4296875 2.9765625 C5.83488201 3.00112837 3.319329 2.32167811 0 1 C0 0.67 0 0.34 0 0 Z " fill="#D5D7D8" transform="translate(503,19)"/>
<path d="M0 0 C2.55907973 2.55907973 2.37409749 4.55658688 2.70703125 8.04296875 C2.90406942 10.1204166 2.90406942 10.1204166 4.1875 12.1875 C5 14 5 14 4.125 16.75 C3.75375 17.4925 3.3825 18.235 3 19 C2.67 19 2.34 19 2 19 C1.34 12.73 0.68 6.46 0 0 Z " fill="#97999B" transform="translate(79,544)"/>
<path d="M0 0 C5.445 1.485 5.445 1.485 11 3 C11 3.99 11 4.98 11 6 C6.87248551 5.39301257 3.6678852 3.96189209 0 2 C0 1.34 0 0.68 0 0 Z " fill="#E8EAED" transform="translate(122,160)"/>
<path d="M0 0 C1.62463842 -0.05395478 3.24978541 -0.09277195 4.875 -0.125 C5.77992188 -0.14820313 6.68484375 -0.17140625 7.6171875 -0.1953125 C10 0 10 0 12 2 C12.99 2.66 13.98 3.32 15 4 C9.76119922 3.44854729 5.02649303 2.57077907 0 1 C0 0.67 0 0.34 0 0 Z " fill="#858688" transform="translate(251,906)"/>
<path d="M0 0 C3.3 0 6.6 0 10 0 C10 0.99 10 1.98 10 3 C10.99 3.33 11.98 3.66 13 4 C8.428721 3.45144652 4.32564205 2.58255197 0 1 C0 0.67 0 0.34 0 0 Z " fill="#8F9194" transform="translate(229,900)"/>
<path d="M0 0 C0.86625 0.3403125 0.86625 0.3403125 1.75 0.6875 C1.75 1.3475 1.75 2.0075 1.75 2.6875 C-1.715 4.1725 -1.715 4.1725 -5.25 5.6875 C-5.58 4.6975 -5.91 3.7075 -6.25 2.6875 C-2.80384615 -0.38942308 -2.80384615 -0.38942308 0 0 Z " fill="#A8ABAE" transform="translate(580.25,885.3125)"/>
<path d="M0 0 C1.32 0.66 2.64 1.32 4 2 C-1.75 6 -1.75 6 -4 6 C-3.6875 4.125 -3.6875 4.125 -3 2 C-2.01 1.34 -1.02 0.68 0 0 Z " fill="#C2C4C5" transform="translate(606,870)"/>
<path d="M0 0 C0.66 0 1.32 0 2 0 C2 0.66 2 1.32 2 2 C3.32 2.33 4.64 2.66 6 3 C3.24921116 3.91692961 1.64051087 4.10886083 -1.1875 4.0625 C-3.0746875 4.0315625 -3.0746875 4.0315625 -5 4 C-4.67 3.34 -4.34 2.68 -4 2 C-3.01 2.33 -2.02 2.66 -1 3 C-0.67 2.01 -0.34 1.02 0 0 Z " fill="#96999D" transform="translate(498,909)"/>
<path d="M0 0 C1.43861294 0.08746284 2.87597508 0.19565348 4.3125 0.3125 C5.11300781 0.37050781 5.91351563 0.42851563 6.73828125 0.48828125 C9.36272334 1.08206694 10.30820672 1.95780294 12 4 C9.50907189 5.24546405 8.58919267 4.7767578 6 4 C6 3.34 6 2.68 6 2 C3.03 1.505 3.03 1.505 0 1 C0 0.67 0 0.34 0 0 Z " fill="#BFC2C5" transform="translate(245,902)"/>
<path d="M0 0 C2.31 0 4.62 0 7 0 C7 1.32 7 2.64 7 4 C4.97954558 3.39816251 2.97888961 2.72693904 1 2 C0.67 1.34 0.34 0.68 0 0 Z " fill="#C1C4C7" transform="translate(213,892)"/>
<path d="M0 0 C4.21912747 0.4794463 6.79663178 1.16625119 10 4 C8.375 4.75 8.375 4.75 6 5 C2.75 3.125 2.75 3.125 0 1 C0 0.67 0 0.34 0 0 Z " fill="#EBECEC" transform="translate(710,62)"/>
<path d="M0 0 C3.63 0.66 7.26 1.32 11 2 C6.46780033 4.26609984 4.82227075 3.92735976 0 3 C0 2.01 0 1.02 0 0 Z " fill="#D5D6D7" transform="translate(657,43)"/>
<path d="M0 0 C2.375 0.6875 2.375 0.6875 5 2 C6.3125 4.625 6.3125 4.625 7 7 C5.02 6.34 3.04 5.68 1 5 C0.67 3.35 0.34 1.7 0 0 Z " fill="#C7C9CC" transform="translate(154,855)"/>
<path d="M0 0 C1.68496298 0.96885372 3.35178756 1.96986723 5 3 C5 3.33 5 3.66 5 4 C2.36 4 -0.28 4 -3 4 C-2.01 2.68 -1.02 1.36 0 0 Z " fill="#C5C8CC" transform="translate(313,911)"/>
<path d="M0 0 C0.99 0 1.98 0 3 0 C3.33 1.32 3.66 2.64 4 4 C2.35 4.33 0.7 4.66 -1 5 C-1 2 -1 2 0 0 Z " fill="#AEB2B6" transform="translate(546,896)"/>
<path d="M0 0 C-1.24663331 0.50833591 -2.49749387 1.00631145 -3.75 1.5 C-4.44609375 1.7784375 -5.1421875 2.056875 -5.859375 2.34375 C-8 3 -8 3 -12 3 C-11 1 -11 1 -9.2578125 0.33203125 C-8.55398438 0.16058594 -7.85015625 -0.01085937 -7.125 -0.1875 C-6.42632813 -0.36667969 -5.72765625 -0.54585937 -5.0078125 -0.73046875 C-3 -1 -3 -1 0 0 Z " fill="#EEEFF1" transform="translate(668,161)"/>
<path d="M0 0 C0 0.99 0 1.98 0 3 C-2.31 3.33 -4.62 3.66 -7 4 C-7 3.34 -7 2.68 -7 2 C-2.25 0 -2.25 0 0 0 Z " fill="#ACB0B4" transform="translate(478,912)"/>
<path d="M0 0 C0.66 0.33 1.32 0.66 2 1 C2.33 1.99 2.66 2.98 3 4 C1.35 4.33 -0.3 4.66 -2 5 C-2 3.68 -2 2.36 -2 1 C-1.34 0.67 -0.68 0.34 0 0 Z " fill="#A8ABAE" transform="translate(571,888)"/>
<path d="M0 0 C2.9375 0.8125 2.9375 0.8125 6 2 C6.33 2.99 6.66 3.98 7 5 C1.25 3.25 1.25 3.25 -1 1 C-0.67 0.67 -0.34 0.34 0 0 Z " fill="#EFF0F0" transform="translate(721,67)"/>
<path d="M0 0 C6.57403846 -0.37211538 6.57403846 -0.37211538 8.73046875 1.51171875 C9.35888672 2.24841797 9.35888672 2.24841797 10 3 C8.5199159 2.88637738 7.04089926 2.75877092 5.5625 2.625 C4.73878906 2.55539063 3.91507813 2.48578125 3.06640625 2.4140625 C2.38449219 2.27742188 1.70257812 2.14078125 1 2 C0.67 1.34 0.34 0.68 0 0 Z " fill="#EFF0F1" transform="translate(649,42)"/>
<path d="M0 0 C1.485 0.99 1.485 0.99 3 2 C2.38722388 4.96175123 1.74627478 6.38058783 0 9 C0 6.03 0 3.06 0 0 Z " fill="#ADAFB3" transform="translate(46,278)"/>
<path d="M0 0 C7.50769231 -0.36923077 7.50769231 -0.36923077 10 1.5 C10.495 2.2425 10.495 2.2425 11 3 C6.94393835 2.53199289 3.53411321 2.12046792 0 0 Z " fill="#F4F5F6" transform="translate(672,49)"/>
</svg>
