<?xml version="1.0" encoding="UTF-8"?>
<svg version="1.1" xmlns="http://www.w3.org/2000/svg" width="256" height="256">
<path d="M0 0 C2.44314594 -0.00322102 4.8862917 -0.0065857 7.32943726 -0.01008606 C12.43463589 -0.01604793 17.53981767 -0.01792902 22.64501953 -0.01733398 C29.13329841 -0.01723258 35.62146733 -0.03087555 42.10972023 -0.04810619 C47.15286743 -0.05931609 52.19598881 -0.06125045 57.23914719 -0.06072426 C59.62853753 -0.06189123 62.01792883 -0.06623931 64.40730667 -0.07405663 C114.34963817 -0.22215559 114.34963817 -0.22215559 132.5859375 16.41796875 C149.73368595 34.49590167 146.9967607 62.42075692 147.00390625 85.33203125 C147.00712727 87.77517719 147.01049195 90.21832295 147.01399231 92.66146851 C147.01995418 97.76666714 147.02183527 102.87184892 147.02124023 107.97705078 C147.02113883 114.46532966 147.0347818 120.95349858 147.05201244 127.44175148 C147.06322234 132.48489868 147.0651567 137.52802006 147.06463051 142.57117844 C147.06579748 144.96056878 147.07014556 147.34996008 147.07796288 149.73933792 C147.22606184 199.68166942 147.22606184 199.68166942 130.5859375 217.91796875 C112.50800458 235.0657172 84.58314933 232.32879195 61.671875 232.3359375 C59.22872906 232.33915852 56.7855833 232.3425232 54.34243774 232.34602356 C49.23723911 232.35198543 44.13205733 232.35386652 39.02685547 232.35327148 C32.53857659 232.35317008 26.05040767 232.36681305 19.56215477 232.38404369 C14.51900757 232.39525359 9.47588619 232.39718795 4.43272781 232.39666176 C2.04333747 232.39782873 -0.34605383 232.40217681 -2.73543167 232.40999413 C-53.0750619 232.55927124 -53.0750619 232.55927124 -69.609375 216.84375 C-87.80667603 197.71556394 -85.3244429 171.34229125 -85.33203125 146.75 C-85.33525197 144.28203818 -85.33861663 141.81407655 -85.34211731 139.34611511 C-85.3480792 134.18964191 -85.34996025 129.03318539 -85.34936523 123.87670898 C-85.34926378 117.3188299 -85.36291265 110.76105946 -85.38013744 104.20320606 C-85.39133885 99.10948713 -85.39328196 94.0157938 -85.39275551 88.92206383 C-85.39392352 86.50672723 -85.39827772 84.0913897 -85.40608788 81.67606544 C-85.55064468 32.35812579 -85.55064468 32.35812579 -68.99609375 14.87890625 C-50.45404112 -2.64579482 -23.69036285 0.00738853 0 0 Z " fill="#1C9BF6" transform="translate(97.1640625,11.83203125)"/>
<path d="M0 0 C48.84 0 97.68 0 148 0 C143.47650404 5.27741195 138.8956782 10.18473623 133.94335938 15.01757812 C131.10446977 17.81557136 128.39266739 20.66283807 125.79858398 23.69042969 C121.98988341 28.06349122 117.98458073 32.21111874 113.90625 36.33203125 C113.15589478 37.09045822 112.40553955 37.84888519 111.63244629 38.6302948 C110.0573749 40.21909656 108.4808166 41.80642553 106.90283203 43.39233398 C105.29646207 45.01029227 103.69458687 46.63272514 102.09716797 48.25952148 C99.772437 50.62689714 97.43475887 52.9807639 95.09375 55.33203125 C94.3862561 56.05703323 93.67876221 56.78203522 92.9498291 57.52900696 C87.09469521 63.3588612 82.08927087 66.41650653 73.5625 66.5 C72.51191406 66.5309375 71.46132812 66.561875 70.37890625 66.59375 C63.05689485 65.30710753 57.61131659 60.05774228 52.55859375 54.88671875 C51.98722183 54.31347366 51.41584991 53.74022858 50.8271637 53.14961243 C49.62968306 51.9454619 48.43577837 50.73774535 47.24536133 49.52661133 C45.4453545 47.69549027 43.63494261 45.8752117 41.82226562 44.05664062 C32.42417434 34.59443998 32.42417434 34.59443998 28.46875 29.953125 C23.37276675 23.97942538 17.64343051 18.57720673 12.0625 13.0625 C9.77971465 10.80622564 7.5002206 8.54669926 5.22265625 6.28515625 C4.4353286 5.51027611 4.4353286 5.51027611 3.63209534 4.71974182 C2.40246007 3.49860529 1.19830753 2.25189311 0 1 C0 0.67 0 0.34 0 0 Z " fill="#FCFDFE" transform="translate(54,78)"/>
<path d="M0 0 C3.80966807 1.71013665 6.4649393 5.34081707 9.24710083 8.38708496 C13.58787328 12.95690718 17.76441387 15.47867302 24.17874146 16.26599121 C39.29200745 16.15500027 45.48426473 10.38782923 55.93264771 -0.13244629 C59.37253279 1.34999193 61.60521648 3.2921055 64.24221802 5.9342041 C65.08278748 6.77169693 65.92335693 7.60918976 66.78939819 8.47206116 C68.13647858 9.82991982 68.13647858 9.82991982 69.51077271 11.21520996 C70.4373468 12.14224228 71.3639209 13.0692746 72.318573 14.0243988 C74.27507938 15.9824663 76.22818819 17.94383942 78.17874146 19.90783691 C80.68450401 22.43064755 83.19685822 24.94676616 85.71153641 27.46068668 C88.10575162 29.85523823 90.4957036 32.25401974 92.88577271 34.65270996 C94.24499847 36.01360497 94.24499847 36.01360497 95.63168335 37.4019928 C96.45964417 38.23633347 97.28760498 39.07067413 98.14065552 39.93029785 C98.87471619 40.66817032 99.60877686 41.40604279 100.36508179 42.16627502 C101.93264771 43.86755371 101.93264771 43.86755371 101.93264771 44.86755371 C53.09264771 44.86755371 4.25264771 44.86755371 -46.06735229 44.86755371 C-39.30755001 36.98111771 -39.30755001 36.98111771 -35.96139526 33.56872559 C-34.84025833 32.42349426 -34.84025833 32.42349426 -33.69647217 31.25512695 C-30.33504614 27.84879022 -26.97143891 24.44472248 -23.59909058 21.04919434 C-21.81898901 19.25240739 -20.04428756 17.4502553 -18.27487183 15.64294434 C-15.71500163 13.0286491 -13.13937949 10.43087597 -10.55953979 7.83630371 C-9.76780365 7.02189819 -8.9760675 6.20749268 -8.16033936 5.3684082 C-7.41921906 4.63013794 -6.67809875 3.89186768 -5.91452026 3.13122559 C-5.26643402 2.47505249 -4.61834778 1.81887939 -3.95062256 1.14282227 C-2.06735229 -0.13244629 -2.06735229 -0.13244629 0 0 Z " fill="#FCFEFE" transform="translate(100.06735229492188,133.1324462890625)"/>
<path d="M0 0 C0.66 0 1.32 0 2 0 C2 30.36 2 60.72 2 92 C-5.875 85.25 -5.875 85.25 -9.37475586 81.73876953 C-10.15503647 80.95841339 -10.93531708 80.17805725 -11.73924255 79.37405396 C-12.55619095 78.55194427 -13.37313934 77.72983459 -14.21484375 76.8828125 C-15.07058487 76.02565643 -15.92632599 75.16850037 -16.80799866 74.28536987 C-19.52020465 71.56760046 -22.2288983 68.84636109 -24.9375 66.125 C-26.78427369 64.27320658 -28.63127653 62.42164166 -30.47851562 60.5703125 C-34.98833201 56.04951565 -39.49527569 51.52587054 -44 47 C-37.7925718 39.65838333 -37.7925718 39.65838333 -34.37890625 36.31640625 C-33.75757813 35.70345703 -33.13625 35.09050781 -32.49609375 34.45898438 C-31.85800781 33.83314453 -31.21992188 33.20730469 -30.5625 32.5625 C-29.21815968 31.23237866 -27.87568113 29.90037279 -26.53515625 28.56640625 C-25.940979 27.97802979 -25.34680176 27.38965332 -24.73461914 26.78344727 C-22.29840914 24.27865992 -20.0430529 21.63038106 -17.76318359 18.98388672 C-16.00092405 17.00103972 -14.17337395 15.12466315 -12.2890625 13.2578125 C-11.60779297 12.57976562 -10.92652344 11.90171875 -10.22460938 11.203125 C-8.84055864 9.83323664 -7.4538956 8.46598184 -6.06445312 7.1015625 C-5.42701172 6.4725 -4.78957031 5.8434375 -4.1328125 5.1953125 C-3.55418457 4.62828613 -2.97555664 4.06125977 -2.37939453 3.47705078 C-0.89627065 2.02889834 -0.89627065 2.02889834 0 0 Z " fill="#FBFDFE" transform="translate(203,82)"/>
<path d="M0 0 C4.81260104 4.1250866 9.10136165 8.10062118 13.3125 12.75 C19.61163244 19.61229991 26.142044 26.21336363 32.7824707 32.74511719 C37.08682984 36.99996778 41.12956297 41.34567699 45 46 C43.51756178 49.43988509 41.57544821 51.67256877 38.93334961 54.30957031 C38.09585678 55.15013977 37.25836395 55.99070923 36.39549255 56.85675049 C35.49025345 57.75480408 34.58501434 58.65285767 33.65234375 59.578125 C32.72531143 60.5046991 31.79827911 61.43127319 30.84315491 62.38592529 C28.88508741 64.34243167 26.92371429 66.29554048 24.9597168 68.24609375 C22.43690616 70.7518563 19.92078755 73.26421052 17.40686703 75.7788887 C15.01231548 78.17310392 12.61353397 80.56305589 10.21484375 82.953125 C9.30758041 83.85927551 8.40031708 84.76542603 7.46556091 85.69903564 C6.63122025 86.52699646 5.79687958 87.35495728 4.93725586 88.20800781 C4.19938339 88.94206848 3.46151093 89.67612915 2.70127869 90.43243408 C1 92 1 92 0 92 C0 61.64 0 31.28 0 0 Z " fill="#FCFDFE" transform="translate(51,82)"/>
</svg>
