<?xml version="1.0" encoding="UTF-8"?>
<svg version="1.1" xmlns="http://www.w3.org/2000/svg" width="534" height="534">
<path d="M0 0 C1.72597224 -0.00230791 3.45194349 -0.00548664 5.17791271 -0.00945449 C9.89351804 -0.01776571 14.6090419 -0.01369398 19.32464743 -0.00748205 C24.42083366 -0.00294348 29.51700621 -0.00994828 34.6131897 -0.01544189 C44.58587826 -0.02432255 54.55853667 -0.02241979 64.5312264 -0.01661661 C72.63820089 -0.01209491 80.74516694 -0.01148942 88.85214233 -0.01366425 C90.00715278 -0.01397071 91.16216322 -0.01427718 92.35217398 -0.01459293 C94.6987528 -0.0152324 97.04533162 -0.01588083 99.39191043 -0.01653811 C121.38186995 -0.02223752 143.37181278 -0.01568962 165.36176956 -0.00493738 C184.21913402 0.00399777 203.07647387 0.00244562 221.93383789 -0.0067749 C243.8465646 -0.0174844 265.75927669 -0.02168823 287.67200565 -0.01555037 C290.00982221 -0.01491329 292.34763876 -0.01428455 294.68545532 -0.01366425 C295.83562502 -0.01335569 296.98579471 -0.01304714 298.17081803 -0.01272924 C306.26552411 -0.01100435 314.3602209 -0.01391298 322.45492554 -0.01862335 C332.32326664 -0.02423973 342.19157593 -0.02269979 352.0599134 -0.01206186 C357.09226338 -0.00681537 362.12456038 -0.00473099 367.15690994 -0.01136017 C371.76834997 -0.01734289 376.37968817 -0.01400632 380.99111903 -0.00340506 C382.65448806 -0.00118086 384.3178658 -0.00228516 385.98122919 -0.00715664 C407.56567673 -0.06549523 424.9802316 3.81668206 441.01879883 19.06646729 C456.38279063 35.00751042 459.08252768 54.26730804 459.02949524 75.47171021 C459.03252037 77.1962574 459.03641166 78.92080325 459.04108781 80.64534676 C459.05132983 85.35708719 459.04919571 90.0687512 459.04490721 94.78049779 C459.04243309 99.87263503 459.05146263 104.96475421 459.0589447 110.05688477 C459.07167443 120.02222039 459.07348757 129.98752904 459.07114444 139.95287143 C459.06935928 148.05506191 459.07111517 156.15724423 459.07536888 164.25943375 C459.07596407 165.41386675 459.07655926 166.56829974 459.07717248 167.75771556 C459.07838427 170.10316292 459.07959841 172.44861027 459.08081486 174.79405762 C459.09168364 196.77453824 459.08953097 218.7550035 459.08343001 240.73548497 C459.0782608 260.82971427 459.08951762 280.92389508 459.10852823 301.01811479 C459.12791467 321.66841349 459.13616126 342.31868926 459.13240498 362.96899712 C459.13049425 374.55555894 459.13296814 386.1420795 459.14711952 397.72863388 C459.15904449 407.5918042 459.16042561 417.45490785 459.14832935 427.3180791 C459.14244871 432.3466519 459.14131877 437.37510283 459.15333176 442.40366745 C459.16421736 447.01401939 459.16105547 451.62414808 459.14707007 456.23448969 C459.14443052 457.89520346 459.14676616 459.55593488 459.15480594 461.21663128 C459.2512387 482.63599216 454.50331531 500.30894544 439.71411133 516.50396729 C435.43716591 520.63565796 430.68718512 523.68911215 425.51879883 526.56646729 C424.94758301 526.89227783 424.37636719 527.21808838 423.7878418 527.55377197 C412.33946208 533.57395961 399.76037253 533.68946725 387.1583252 533.63491821 C385.40332738 533.63838076 383.64833174 533.64314932 381.89334059 533.64909995 C377.10208125 533.66155755 372.31100249 533.65546354 367.51974273 533.64614129 C362.34038464 533.63932957 357.16105673 533.64984253 351.98170471 533.65808105 C341.84771436 533.67139797 331.7137908 533.66854975 321.57979786 533.65984313 C313.34127387 533.65305896 305.10276854 533.65215304 296.86424255 533.65541458 C295.10322191 533.65610413 295.10322191 533.65610413 293.3066251 533.65680761 C290.92139454 533.65776682 288.53616399 533.65873946 286.15093344 533.65972538 C263.80183091 533.6682733 241.45276534 533.65845453 219.10366887 533.64232428 C199.94075749 533.62892166 180.77790063 533.63124992 161.61499023 533.64508057 C139.34406465 533.66114694 117.07317142 533.66744938 94.80224085 533.65824378 C92.4259456 533.65728816 90.04965036 533.65634505 87.6733551 533.65541458 C86.50427234 533.65495175 85.33518957 533.65448893 84.13068005 533.65401208 C75.90518157 533.65142537 67.67970367 533.65578631 59.45420837 533.66285324 C49.4256074 533.67128018 39.39707684 533.66896297 29.3684839 533.65301101 C24.2549708 533.64514441 19.14157497 533.64200921 14.02806282 533.65195847 C9.34131498 533.66093924 4.65479243 533.65591705 -0.03193516 533.64002581 C-1.72153564 533.63669229 -3.41115541 533.63833965 -5.10074335 533.64565317 C-24.26039095 533.72218424 -40.96712447 530.00858514 -55.16918945 516.51593018 C-59.529299 512.1654505 -63.09144212 507.54021041 -66.23120117 502.25396729 C-66.70170898 501.46506104 -67.1722168 500.67615479 -67.65698242 499.86334229 C-74.24901218 487.80712268 -74.67011572 475.03332827 -74.6121521 461.63676453 C-74.61561464 459.88105401 -74.62038319 458.12534568 -74.62633383 456.36964184 C-74.63879144 451.57645191 -74.63269744 446.78344249 -74.62337518 441.99025214 C-74.61656351 436.80886817 -74.62707636 431.62751437 -74.63531494 426.44613647 C-74.64863163 416.30847113 -74.64578382 406.17087254 -74.63707702 396.03320461 C-74.63029313 387.79228834 -74.62938681 379.55139075 -74.63264847 371.31047249 C-74.63310817 370.13617001 -74.63356787 368.96186752 -74.6340415 367.75198011 C-74.6350007 365.36618383 -74.63597334 362.98038754 -74.63695927 360.59459127 C-74.64550702 338.24075011 -74.63568848 315.8869459 -74.61955817 293.5331108 C-74.60615381 274.36362845 -74.60848527 255.19420061 -74.62231445 236.02471924 C-74.6383781 213.74757731 -74.64468494 191.47046773 -74.63547766 169.19332081 C-74.63452204 166.81676265 -74.63357893 164.44020449 -74.63264847 162.06364632 C-74.63218564 160.89442284 -74.63172281 159.72519936 -74.63124596 158.52054487 C-74.62865857 150.29157092 -74.63302165 142.06261754 -74.64008713 133.83364677 C-74.64851095 123.80245536 -74.64620331 113.77133435 -74.6302449 103.74015098 C-74.62237438 98.62473651 -74.61924984 93.50943933 -74.62919235 88.3940258 C-74.63816485 83.70671342 -74.63316441 79.01962649 -74.6172597 74.33233441 C-74.61392272 72.64140583 -74.61558142 70.95045801 -74.62288706 69.25954192 C-74.67255728 56.80269391 -73.44355847 45.43270216 -67.66870117 34.19146729 C-67.32210449 33.51591797 -66.97550781 32.84036865 -66.6184082 32.14434814 C-59.28158237 18.46703548 -46.55359792 8.10773978 -31.84357929 3.03642249 C-21.40880185 -0.08898492 -10.77944697 -0.03156966 0 0 Z " fill="#0975B3" transform="translate(75.231201171875,0.74603271484375)"/>
<path d="M0 0 C4.39787396 3.76960625 8.42965103 7.33436784 12.4375 11.4375 C16.29915585 15.37004873 20.26773754 19.07570411 24.5390625 22.5625 C26 24 26 24 27 27 C28.3153341 27.70151152 29.65117592 28.36525925 31 29 C32.75 30.5 32.75 30.5 34 32 C34 32.66 34 33.32 34 34 C34.59441895 34.26393555 35.18883789 34.52787109 35.80126953 34.79980469 C38.09139423 36.0498883 39.43349193 37.28051862 41.1796875 39.203125 C41.77217285 39.84725342 42.3646582 40.49138184 42.97509766 41.1550293 C43.60206543 41.84636963 44.2290332 42.53770996 44.875 43.25 C51.53840673 50.48387577 58.38363107 57.49536298 65.38525391 64.40112305 C67.59837402 66.59249342 69.7977279 68.7977279 72 71 C61.77 71 51.54 71 41 71 C41 135.02 41 199.04 41 265 C58.49 265 75.98 265 94 265 C93.96519531 256.96785156 93.93039062 248.93570313 93.89453125 240.66015625 C93.87918527 235.54231034 93.86474212 230.42449319 93.85351562 225.30664062 C93.83564924 217.20054101 93.81507568 209.09454312 93.77368164 200.98852539 C93.74028921 194.44624174 93.7230981 187.90402676 93.71536827 181.36166191 C93.7098664 178.87767238 93.69912384 176.39368822 93.68280983 173.90974617 C93.4204103 132.26446472 93.4204103 132.26446472 107 117 C109.33203125 115.26953125 109.33203125 115.26953125 111.8125 113.8125 C112.62332031 113.32394531 113.43414062 112.83539063 114.26953125 112.33203125 C124.08328464 107.54449204 136.64268346 107.52145384 147.24609375 109.65234375 C153.75355157 112.01776913 159.74283855 116.14142737 163.27734375 122.18359375 C164.39551216 124.75327135 165.19280785 127.31618463 166 130 C166.26754593 130.86291656 166.53509186 131.72583313 166.81074524 132.61489868 C170.15085285 145.45714407 169.37376152 158.67032408 169.29296875 171.8359375 C169.28568191 174.52877558 169.2829508 177.22161328 169.28010559 179.91445923 C169.27084241 186.24290229 169.24630776 192.57118681 169.21605712 198.89956057 C169.17901436 206.82363477 169.16276488 214.74773561 169.14648438 222.671875 C169.11740539 236.78137298 169.05728659 250.89052584 169 265 C186.49 265 203.98 265 222 265 C221.91438644 247.47497297 221.82070511 229.95005119 221.71247292 212.42515182 C221.66246836 204.28703417 221.61602463 196.14892597 221.578125 188.01074219 C221.5450613 180.9129559 221.50515204 173.81524578 221.45720994 166.71754384 C221.432087 162.96350171 221.41026483 159.20950918 221.39665604 155.45540619 C221.3837054 151.91281139 221.3615151 148.37038794 221.33261681 144.82788849 C221.31940276 142.92655262 221.31564485 141.02515815 221.31230164 139.1237793 C221.23960903 131.56492821 220.47021547 124.41295789 219 117 C218.64808594 115.16888672 218.64808594 115.16888672 218.2890625 113.30078125 C216.9851667 107.43325015 215.44244122 102.10290568 212.76953125 96.70703125 C212 95 212 95 212 93 C215.93899191 94.59399939 218.58426435 97.3126553 221.51675415 100.28297424 C222.06187318 100.82708999 222.60699221 101.37120574 223.16863 101.93180984 C224.99432175 103.75654885 226.8127688 105.58834009 228.63134766 107.42016602 C229.93858369 108.72960318 231.24626796 110.038593 232.55436707 111.34716797 C235.37012341 114.1658583 238.18269308 116.98767731 240.99284744 119.81195259 C245.43293189 124.27428052 249.88007294 128.72953027 254.32821655 133.18382263 C261.35956986 140.22655916 268.3862339 147.273953 275.41087759 154.32338136 C287.99949216 166.95633065 300.5937086 179.58368941 313.19312131 192.20586914 C317.61748661 196.63866114 322.0390275 201.07424618 326.45834756 205.51206791 C329.20257888 208.26691357 331.94881617 211.01975294 334.69556618 213.7720871 C335.97276361 215.0527661 337.24908798 216.33431646 338.52449226 217.61678123 C340.25979089 219.36147736 341.99810343 221.10311339 343.73721313 222.8440094 C344.2461551 223.35722844 344.75509706 223.87044748 345.2794615 224.39921862 C347.88927611 227.03136294 347.88927611 227.03136294 351 229 C351.07037593 243.36115968 351.12292712 257.72229226 351.15543652 272.08358955 C351.17104498 278.75322432 351.19219477 285.42271157 351.22631836 292.09228516 C351.25908408 298.53731291 351.27688922 304.98222916 351.28463173 311.42733383 C351.29014444 313.877519 351.30090885 316.32769857 351.31719017 318.77783585 C351.47231494 343.10537828 349.02516172 362.54659097 331.9453125 381.25 C327.66836708 385.38169067 322.91838629 388.43514487 317.75 391.3125 C317.17878418 391.63831055 316.60756836 391.96412109 316.01904297 392.29980469 C303.34812123 398.96287215 289.42732487 398.45735145 275.53173828 398.4675293 C273.38356346 398.47979932 271.23539513 398.4932546 269.0872345 398.50779724 C263.28812513 398.54265061 257.48912934 398.5580723 251.68992853 398.56763434 C248.06370693 398.57423077 244.43751497 398.5845827 240.811306 398.59613991 C228.15316447 398.6357857 215.49511333 398.65787643 202.83691406 398.66577148 C191.0457488 398.67366161 179.25523019 398.72302072 167.46427166 398.79083699 C157.32553492 398.84711078 147.18701401 398.87268285 137.04812229 398.87471896 C130.99868845 398.87655998 124.94993995 398.89121962 118.9006691 398.93753624 C113.21868365 398.98012707 107.53793434 398.98459836 101.85585594 398.95974159 C99.77210634 398.95715265 97.68828792 398.96823146 95.60469627 398.99401855 C79.99215198 399.17563936 79.99215198 399.17563936 75.59941387 396.5833292 C73.96211243 394.70172119 73.96211243 394.70172119 72.57314682 392.49627209 C70.60184651 389.36820936 68.11739208 386.94049322 65.48866272 384.37513733 C64.43275665 383.32088576 63.37766875 382.26581423 62.32331848 381.21000671 C61.18702442 380.07884453 60.05068566 378.94772723 58.91430664 377.81665039 C57.70124341 376.60550943 56.48840994 375.3941383 55.27578735 374.18255615 C52.67889023 371.58880361 50.08045214 368.99660858 47.48079109 366.4056263 C43.37346311 362.31187396 39.27000004 358.21426211 35.167099 354.11607361 C26.46853247 345.42857528 17.76572083 336.74533522 9.0625 328.0625 C-0.35832006 318.66370192 -9.77840018 309.26416903 -19.19363886 299.8597793 C-23.27667916 295.78173358 -27.36214786 291.70614083 -31.44946563 287.63238251 C-33.98142127 285.10785364 -36.51133263 282.58128393 -39.04067612 280.05413818 C-40.21858097 278.87811462 -41.39735438 277.70296032 -42.57703209 276.52871513 C-44.17949167 274.93340716 -45.77890041 273.33510348 -47.37754822 271.73597717 C-48.27550078 270.84024522 -49.17345335 269.94451326 -50.0986166 269.02163792 C-52 267 -52 267 -52 266 C-35.17 266 -18.34 266 -1 266 C-1 201.65 -1 137.3 -1 71 C-8.92 71 -16.84 71 -25 71 C-31.10979314 66.6519796 -35.33131852 63.08648613 -40 57.5625 C-41.18552596 56.26478581 -42.37692774 54.97241444 -43.57421875 53.68554688 C-52 44.52404983 -52 44.52404983 -52 43 C-26.755 42.505 -26.755 42.505 -1 42 C-0.67 28.14 -0.34 14.28 0 0 Z " fill="#075785" transform="translate(183,136)"/>
<path d="M0 0 C1.23443848 0.01087646 2.46887695 0.02175293 3.74072266 0.03295898 C22.27426262 0.35560963 38.36856859 3.68575602 52.1328125 17.06640625 C67.69981841 33.55404154 70.48962514 53.95736036 70.42602539 75.88110352 C70.42574279 77.22231545 70.42590267 78.56352754 70.4264679 79.90473938 C70.42675304 83.5198074 70.42090222 87.13484176 70.41389394 90.74990201 C70.40761314 94.53752548 70.40705288 98.32514984 70.40586853 102.11277771 C70.40276909 109.27359395 70.39457451 116.43439481 70.38451904 123.59520429 C70.37331468 131.75245035 70.36783659 139.90969717 70.36282361 148.06694901 C70.35239065 164.83630975 70.33406254 181.60564931 70.3125 198.375 C52.8225 198.375 35.3325 198.375 17.3125 198.375 C17.27511719 189.80273438 17.23773438 181.23046875 17.19921875 172.3984375 C17.16506359 166.25395072 17.12906608 160.10949622 17.09042263 153.9650383 C17.04069474 146.0193528 16.99521487 138.0737202 16.96606445 130.12792969 C16.9429587 123.83360384 16.90942282 117.53943082 16.86379844 111.2452265 C16.84003374 107.9180639 16.82275336 104.59118799 16.81488609 101.26392746 C16.95490105 82.09393775 16.95490105 82.09393775 13.3125 63.375 C13.02287888 62.41129486 12.73325775 61.44758972 12.43486023 60.4546814 C10.41285756 54.16995803 7.02273795 49.75452858 1.3125 46.375 C-5.01693305 43.60296208 -10.83069518 42.90505963 -17.6875 43 C-18.52539062 42.98839844 -19.36328125 42.97679687 -20.2265625 42.96484375 C-29.91532748 43.00983801 -38.30373253 46.02755077 -45.6875 52.375 C-47.79407973 54.867518 -49.2690259 57.44348687 -50.6875 60.375 C-51.05617188 61.11492187 -51.42484375 61.85484375 -51.8046875 62.6171875 C-58.47800539 77.47384411 -57.0270152 94.78160519 -57.1015625 110.6796875 C-57.12030041 113.21559257 -57.13987571 115.75149157 -57.1602478 118.28738403 C-57.20610064 124.24385214 -57.24360679 130.20033446 -57.27692068 136.15688241 C-57.32593477 144.81196529 -57.39217072 153.46692022 -57.45623779 162.12190247 C-57.54411896 174.20622821 -57.6141204 186.29053835 -57.6875 198.375 C-75.1775 198.375 -92.6675 198.375 -110.6875 198.375 C-110.6875 134.685 -110.6875 70.995 -110.6875 5.375 C-94.1875 5.375 -77.6875 5.375 -60.6875 5.375 C-60.6875 14.285 -60.6875 23.195 -60.6875 32.375 C-60.0275 32.375 -59.3675 32.375 -58.6875 32.375 C-58.419375 31.63894531 -58.15125 30.90289062 -57.875 30.14453125 C-52.26560269 17.06208818 -39.46290772 9.27020213 -26.78686523 4.1484375 C-17.77822761 0.82952088 -9.58401042 -0.11448477 0 0 Z " fill="#FDFEFE" transform="translate(334.6875,202.625)"/>
<path d="M0 0 C17.49 0 34.98 0 53 0 C53 63.69 53 127.38 53 193 C35.51 193 18.02 193 0 193 C0 129.31 0 65.62 0 0 Z " fill="#FDFDFE" transform="translate(129,208)"/>
<path d="M0 0 C17.49 0 34.98 0 53 0 C53 14.52 53 29.04 53 44 C35.51 44 18.02 44 0 44 C0 29.48 0 14.96 0 0 Z " fill="#FBFCFD" transform="translate(129,134)"/>
<path d="M0 0 C7.875 6.75 7.875 6.75 11 10 C9.37879192 13.56496018 7.2405574 16.59008822 4.9375 19.75 C4.22464844 20.73484375 3.51179688 21.7196875 2.77734375 22.734375 C2.19082031 23.48203125 1.60429687 24.2296875 1 25 C0.67 25 0.34 25 0 25 C0 16.75 0 8.5 0 0 Z " fill="#095987" transform="translate(275,209)"/>
<path d="M0 0 C0.66 0.33 1.32 0.66 2 1 C-2.62 5.62 -7.24 10.24 -12 15 C-12 10.81257912 -9.7797863 8.86923487 -7 6 C-4.72436307 3.92653743 -2.388922 1.9414294 0 0 Z " fill="#DBE6ED" transform="translate(292,215)"/>
<path d="M0 0 C0.66 0.33 1.32 0.66 2 1 C-1.3 4.3 -4.6 7.6 -8 11 C-8 7.0234755 -6.61988497 5.9109833 -4 3 C-1.75 1.1875 -1.75 1.1875 0 0 Z " fill="#286B93" transform="translate(294,250)"/>
</svg>
